<?xml version="1.0" encoding="UTF-8" standalone="no"?>
<!-- Created with Inkscape (http://www.inkscape.org/) -->

<svg
   xmlns:dc="http://purl.org/dc/elements/1.1/"
   xmlns:cc="http://creativecommons.org/ns#"
   xmlns:rdf="http://www.w3.org/1999/02/22-rdf-syntax-ns#"
   xmlns:svg="http://www.w3.org/2000/svg"
   xmlns="http://www.w3.org/2000/svg"
   version="1.1"
   width="892.91339"
   height="454.96063"
   id="svg7101">
  <defs
     id="defs7103">
    <clipPath
       id="clipPath5828">
      <path
         d="m 719.656,525.795 107.115,0 0,54.165 -107.115,0 0,-54.165 z"
         id="path5830" />
    </clipPath>
    <clipPath
       id="clipPath5836">
      <path
         d="m 719.357,580.276 107.713,0 0,-54.796 -107.713,0 0,54.796 z"
         id="path5838" />
    </clipPath>
    <clipPath
       id="clipPath5840">
      <path
         d="m 793.163,574.265 c -0.045,0 -0.087,0.009 -0.121,0.027 -0.048,0.017 -0.086,0.048 -0.121,0.085 -0.024,0.043 -0.043,0.091 -0.051,0.145 l -0.162,1.213 c -0.01,0.046 0,0.103 0.017,0.154 0.013,0.056 0.035,0.108 0.07,0.162 0.032,0.048 0.075,0.102 0.121,0.142 0.048,0.039 0.102,0.076 0.158,0.108 0.054,0.031 0.108,0.048 0.159,0.051 0.021,0.003 0.041,0.005 0.061,0.005 0.03,0 0.058,-0.004 0.084,-0.011 0.043,-0.014 0.078,-0.037 0.105,-0.068 0.03,-0.031 0.048,-0.071 0.057,-0.122 l 0.228,-1.179 c 0.008,-0.057 0.005,-0.117 -0.011,-0.179 -0.013,-0.063 -0.037,-0.125 -0.075,-0.185 -0.03,-0.06 -0.075,-0.116 -0.126,-0.168 -0.051,-0.048 -0.113,-0.093 -0.178,-0.125 -0.064,-0.034 -0.121,-0.048 -0.18,-0.054 -0.012,-10e-4 -0.023,-10e-4 -0.035,-10e-4"
         id="path5842" />
    </clipPath>
  </defs>
  <metadata
     id="metadata7106">
    <rdf:RDF>
      <cc:Work
         rdf:about="">
        <dc:format>image/svg+xml</dc:format>
        <dc:type
           rdf:resource="http://purl.org/dc/dcmitype/StillImage" />
        <dc:title></dc:title>
      </cc:Work>
    </rdf:RDF>
  </metadata>
  <g
     transform="translate(46.94691,-205.53982)"
     id="layer1">
    <g
       transform="matrix(8.2698667,0,0,-8.2698667,-5994.8628,5005.2454)"
       id="g5824">
      <g
         clip-path="url(#clipPath5828)"
         id="g5826">
        <g
           id="g5832">
          <g
             id="g5834" />
          <g
             id="g5844">
            <g
               clip-path="url(#clipPath5836)"
               id="g5846">
              <g
                 transform="matrix(0.2988129,0,0,-0.3156738,754.63019,461.98889)"
                 id="g5848">
                <g
                   transform="translate(239.1619,-228.4133)"
                   id="g5850">
                  <path
                     d="M 0,0 C 0.82,0 1.356,0.553 1.356,1.355 1.356,2.122 0.82,2.675 0,2.675 l -0.481,0 C -0.393,1.783 -0.393,0.482 -0.393,0 L 0,0 z"
                     id="path5852"
                     style="fill:#575656;fill-opacity:1;fill-rule:nonzero;stroke:none" />
                </g>
              </g>
              <g
                 transform="matrix(0.2988129,0,0,-0.3156738,754.63019,461.98889)"
                 id="g5854">
                <g
                   transform="translate(241.427,-227.3613)"
                   id="g5856">
                  <path
                     d="m 0,0 c 0,2.532 -0.624,4.422 -1.855,5.653 l -1.444,1.48 C -3.585,7.4 -3.906,7.561 -4.244,7.561 -4.601,7.561 -4.922,7.419 -5.19,7.133 -5.457,6.866 -5.6,6.527 -5.6,6.17 c 0,-0.374 0.179,-0.731 0.499,-1.016 l 1.338,-1.427 c 0.196,-0.178 0.624,-0.499 0.892,-1.462 0.053,-0.16 0.088,-0.392 0.125,-0.642 l 0.481,0 c 0.82,0 1.356,-0.553 1.356,-1.32 0,-0.802 -0.536,-1.355 -1.356,-1.355 l -0.393,0 0,-0.143 0,-7.008 c 0,-0.553 -0.178,-0.999 -0.552,-1.373 -0.393,-0.375 -0.821,-0.553 -1.391,-0.553 l -2.247,0 c -0.571,0 -0.999,0.178 -1.373,0.553 -0.375,0.392 -0.571,0.82 -0.571,1.373 l 0,5.225 c 0,0.553 0.161,0.999 0.517,1.391 0.322,0.375 0.66,0.535 1.071,0.535 l 4.546,0 c 0,0.482 0,1.783 -0.088,2.675 l -4.477,0 C -8.4,1.605 -9.398,1.159 -10.237,0.232 c -0.82,-0.91 -1.212,-1.98 -1.212,-3.21 l 0,-5.225 c 0,-1.248 0.446,-2.336 1.355,-3.245 0.892,-0.892 1.979,-1.356 3.246,-1.356 l 2.247,0 c 1.302,0 2.39,0.464 3.299,1.373 C -0.428,-10.539 0,-9.433 0,-8.185 L 0,0 z"
                     id="path5858"
                     style="fill:#575656;fill-opacity:1;fill-rule:nonzero;stroke:none" />
                </g>
              </g>
              <g
                 transform="matrix(0.2988129,0,0,-0.3156738,754.63019,461.98889)"
                 id="g5860">
                <g
                   transform="translate(229.2469,-210.6703)"
                   id="g5862">
                  <path
                     d="M 0,0 C 0.499,0.5 0.713,1.053 0.713,1.73 0.713,2.408 0.499,2.96 0,3.46 -0.481,3.959 -1.052,4.191 -1.712,4.191 l -2.122,0 c -0.232,0 -0.375,-0.107 -0.375,-0.338 0,-0.268 0.143,-0.375 0.375,-0.375 l 2.122,0 c 0.445,0 0.856,-0.161 1.213,-0.518 C -0.143,2.64 0.018,2.248 0.018,1.73 0.018,1.249 -0.143,0.821 -0.499,0.518 -0.856,0.143 -1.267,0 -1.712,0 c -0.731,0 -1.302,-0.267 -1.783,-0.749 -0.446,-0.463 -0.714,-1.034 -0.714,-1.729 0,-0.678 0.268,-1.266 0.714,-1.748 0.481,-0.428 1.052,-0.677 1.783,-0.677 l 2.105,0 c 0.195,0 0.32,0.089 0.32,0.339 0,0.231 -0.125,0.338 -0.32,0.338 l -2.087,0 c -0.517,0 -0.927,0.196 -1.284,0.517 -0.339,0.375 -0.517,0.767 -0.517,1.267 0,0.463 0.178,0.873 0.517,1.212 0.357,0.321 0.767,0.535 1.284,0.535 0.642,0 1.213,0.214 1.694,0.695"
                     id="path5864"
                     style="fill:#575656;fill-opacity:1;fill-rule:nonzero;stroke:none" />
                </g>
              </g>
              <g
                 transform="matrix(0.2988129,0,0,-0.3156738,754.63019,461.98889)"
                 id="g5866">
                <g
                   transform="translate(227.303,-239.1303)"
                   id="g5868">
                  <path
                     d="m 0,0 c 0,0.802 -0.553,1.337 -1.373,1.337 l -1.926,0 c -0.32,0 -0.588,0.143 -0.838,0.481 -0.303,0.393 -0.445,0.856 -0.445,1.445 l 0,8.47 c 0,0.785 -0.518,1.32 -1.321,1.32 -0.801,0 -1.355,-0.535 -1.355,-1.32 l 0,-8.505 c 0,-1.213 0.375,-2.301 1.124,-3.175 0.784,-0.909 1.747,-1.391 2.835,-1.391 l 1.926,0 C -0.553,-1.338 0,-0.785 0,0"
                     id="path5870"
                     style="fill:#575656;fill-opacity:1;fill-rule:nonzero;stroke:none" />
                </g>
              </g>
              <g
                 transform="matrix(0.2988129,0,0,-0.3156738,754.63019,461.98889)"
                 id="g5872">
                <g
                   transform="translate(215.177,-210.9733)"
                   id="g5874">
                  <path
                     d="m 0,0 0.161,-0.178 c 0.017,-0.143 0.16,-0.196 0.267,-0.196 l 0.018,0 0,0.695 -0.018,0 C 0.321,0.321 0.178,0.303 0.161,0.178 L 0,0 z"
                     id="path5876"
                     style="fill:#575656;fill-opacity:1;fill-rule:nonzero;stroke:none" />
                </g>
              </g>
              <g
                 transform="matrix(0.2988129,0,0,-0.3156738,754.63019,461.98889)"
                 id="g5878">
                <g
                   transform="translate(214.945,-209.1003)"
                   id="g5880">
                  <path
                     d="m 0,0 0,-3.763 c 0,-0.749 0.25,-1.373 0.803,-1.908 0.517,-0.535 1.141,-0.767 1.89,-0.767 l 1.676,0 c 0.713,0 1.337,0.232 1.855,0.714 0.516,0.463 0.784,1.069 0.784,1.729 0,0.678 -0.231,1.249 -0.713,1.73 -0.499,0.482 -1.07,0.713 -1.729,0.713 l -3.888,0 0,-0.695 3.888,0 c 0.499,0 0.891,-0.197 1.23,-0.499 0.339,-0.322 0.499,-0.767 0.499,-1.249 0,-0.499 -0.179,-0.873 -0.589,-1.248 C 5.35,-5.564 4.886,-5.778 4.369,-5.778 l -1.676,0 c -0.553,0 -1.035,0.214 -1.427,0.624 -0.41,0.393 -0.588,0.838 -0.588,1.373 l 0,1.534 -0.018,0 c -0.107,0 -0.25,0.053 -0.267,0.196 l -0.161,0.178 0.161,0.178 c 0.017,0.125 0.16,0.143 0.267,0.143 l 0.018,0 0,1.587 c 0,0.518 0.178,0.981 0.535,1.338 0.374,0.428 0.749,0.624 1.266,0.624 l 2.087,0 c 0.231,0 0.374,0.089 0.374,0.321 0,0.25 -0.143,0.357 -0.374,0.357 l -2.087,0 C 1.783,2.675 1.195,2.425 0.696,1.89 0.232,1.355 0,0.731 0,0"
                     id="path5882"
                     style="fill:#575656;fill-opacity:1;fill-rule:nonzero;stroke:none" />
                </g>
              </g>
              <g
                 transform="matrix(0.2988129,0,0,-0.3156738,754.63019,461.98889)"
                 id="g5884">
                <g
                   transform="translate(207.794,-225.7023)"
                   id="g5886">
                  <path
                     d="m 0,0 c -1.248,0 -2.354,-0.464 -3.263,-1.356 -0.891,-0.891 -1.338,-1.997 -1.338,-3.245 l 0,-8.471 c 0,-0.802 0.535,-1.355 1.338,-1.355 0.802,0 1.32,0.553 1.32,1.355 l 0,8.471 c 0,0.552 0.178,0.998 0.57,1.373 0.375,0.392 0.803,0.552 1.373,0.552 l 2.301,0 c 0.517,0 0.945,-0.16 1.319,-0.552 0.393,-0.392 0.571,-0.821 0.571,-1.373 l 0,-8.471 c 0,-0.802 0.553,-1.355 1.355,-1.355 0.785,0 1.32,0.553 1.32,1.355 l 0,8.471 c 0,1.248 -0.446,2.354 -1.338,3.245 C 4.637,-0.464 3.567,0 2.301,0 L 0,0 z"
                     id="path5888"
                     style="fill:#575656;fill-opacity:1;fill-rule:nonzero;stroke:none" />
                </g>
              </g>
              <g
                 transform="matrix(0.2988129,0,0,-0.3156738,754.63019,461.98889)"
                 id="g5890">
                <g
                   transform="translate(204.7269,-207.2103)"
                   id="g5892">
                  <path
                     d="m 0,0 c -0.517,-0.535 -0.767,-1.159 -0.767,-1.89 l 0,-3.763 c 0,-0.749 0.25,-1.373 0.767,-1.908 0.535,-0.535 1.141,-0.767 1.908,-0.767 l 3.977,0 c 0.232,0 0.374,0.107 0.374,0.375 0,0.214 -0.142,0.285 -0.374,0.285 l -3.977,0 c -0.534,0 -0.998,0.214 -1.408,0.624 -0.375,0.393 -0.571,0.856 -0.571,1.391 l 0,3.763 c 0,0.553 0.196,1.016 0.571,1.373 0.41,0.428 0.874,0.624 1.408,0.624 l 3.977,0 c 0.232,0 0.374,0.089 0.374,0.321 0,0.25 -0.142,0.357 -0.374,0.357 l -3.977,0 C 1.141,0.785 0.535,0.535 0,0"
                     id="path5894"
                     style="fill:#575656;fill-opacity:1;fill-rule:nonzero;stroke:none" />
                </g>
              </g>
              <g
                 transform="matrix(0.2988129,0,0,-0.3156738,754.63019,461.98889)"
                 id="g5896">
                <g
                   transform="translate(193.564,-212.8633)"
                   id="g5898">
                  <path
                     d="m 0,0 0,6.081 c 0,0.25 -0.072,0.357 -0.338,0.357 -0.233,0 -0.375,-0.107 -0.375,-0.357 l 0,-6.081 c 0,-0.749 0.267,-1.373 0.802,-1.908 0.517,-0.535 1.159,-0.767 1.872,-0.767 l 1.659,0 c 0.731,0 1.373,0.232 1.908,0.767 0.517,0.535 0.766,1.159 0.766,1.908 l 0,6.081 c 0,0.25 -0.106,0.357 -0.338,0.357 -0.267,0 -0.375,-0.107 -0.375,-0.357 L 5.581,0 c 0,-0.535 -0.196,-0.998 -0.57,-1.391 -0.41,-0.41 -0.856,-0.624 -1.373,-0.624 l -1.641,0 c -0.571,0 -1.034,0.214 -1.391,0.624 C 0.214,-0.998 0,-0.535 0,0"
                     id="path5900"
                     style="fill:#575656;fill-opacity:1;fill-rule:nonzero;stroke:none" />
                </g>
              </g>
              <g
                 transform="matrix(0.2988129,0,0,-0.3156738,754.63019,461.98889)"
                 id="g5902">
                <g
                   transform="translate(189.142,-240.1653)"
                   id="g5904">
                  <path
                     d="m 0,0 0,2.658 -0.339,0 C -1.142,2.658 -1.695,2.14 -1.695,1.356 -1.695,0.535 -1.142,0 -0.339,0 L 0,0 z"
                     id="path5906"
                     style="fill:#575656;fill-opacity:1;fill-rule:nonzero;stroke:none" />
                </g>
              </g>
              <g
                 transform="matrix(0.2988129,0,0,-0.3156738,754.63019,461.98889)"
                 id="g5908">
                <g
                   transform="translate(186.484,-244.7123)"
                   id="g5910">
                  <path
                     d="m 0,0 c 0,-0.785 0.518,-1.319 1.302,-1.319 0.803,0 1.356,0.534 1.356,1.319 l 0,4.547 -0.339,0 c -0.803,0 -1.356,0.535 -1.356,1.356 0,0.784 0.553,1.302 1.356,1.302 l 0.339,0 0,7.168 c 0,0.535 0.177,0.981 0.552,1.355 0.393,0.393 0.803,0.571 1.32,0.571 l 2.3,0 c 0.553,0 0.981,-0.178 1.356,-0.571 0.391,-0.374 0.57,-0.82 0.57,-1.355 l 0,-5.225 C 8.756,8.578 8.596,8.132 8.239,7.739 7.918,7.383 7.579,7.222 7.133,7.222 l 0,-0.017 -4.475,0 0,-2.658 4.494,0 c 1.194,0 2.211,0.464 3.049,1.391 0.82,0.91 1.212,1.98 1.212,3.21 l 0,5.225 c 0,1.249 -0.427,2.336 -1.319,3.228 -0.892,0.909 -1.979,1.373 -3.228,1.373 l -2.318,0 C 3.299,18.974 2.211,18.51 1.338,17.601 0.428,16.709 0,15.622 0,14.373 L 0,0 z"
                     id="path5912"
                     style="fill:#575656;fill-opacity:1;fill-rule:nonzero;stroke:none" />
                </g>
              </g>
              <g
                 transform="matrix(0.2988129,0,0,-0.3156738,754.63019,461.98889)"
                 id="g5914">
                <g
                   transform="translate(183.078,-210.6522)"
                   id="g5916">
                  <path
                     d="m 0,0 c -0.143,0 -0.249,-0.018 -0.285,-0.143 l -0.16,-0.178 0.16,-0.178 C -0.249,-0.642 -0.143,-0.695 0,-0.695 l 0.019,0 L 0.019,0 0,0 z"
                     id="path5918"
                     style="fill:#575656;fill-opacity:1;fill-rule:nonzero;stroke:none" />
                </g>
              </g>
              <g
                 transform="matrix(0.2988129,0,0,-0.3156738,754.63019,461.98889)"
                 id="g5920">
                <g
                   transform="translate(183.1139,-207.2103)"
                   id="g5922">
                  <path
                     d="m 0,0 c -0.481,-0.535 -0.731,-1.159 -0.731,-1.89 l 0,-3.763 c 0,-0.749 0.285,-1.373 0.802,-1.908 0.536,-0.535 1.177,-0.767 1.89,-0.767 l 1.677,0 c 0.731,0 1.355,0.232 1.891,0.714 0.499,0.463 0.766,1.069 0.766,1.729 0,0.678 -0.232,1.249 -0.731,1.73 -0.464,0.482 -1.071,0.713 -1.73,0.713 l -3.851,0 0,-0.695 3.851,0 c 0.499,0 0.892,-0.197 1.266,-0.499 0.321,-0.322 0.481,-0.767 0.481,-1.249 0,-0.499 -0.177,-0.873 -0.588,-1.248 C 4.618,-7.454 4.155,-7.668 3.638,-7.668 l -1.677,0 c -0.57,0 -0.998,0.214 -1.39,0.624 -0.393,0.393 -0.588,0.838 -0.588,1.373 l 0,1.534 -0.019,0 c -0.143,0 -0.249,0.053 -0.285,0.196 l -0.16,0.178 0.16,0.178 c 0.036,0.125 0.142,0.143 0.285,0.143 l 0.019,0 0,1.587 c 0,0.518 0.177,0.981 0.516,1.338 0.357,0.428 0.785,0.624 1.248,0.624 l 2.087,0 c 0.232,0 0.357,0.089 0.357,0.321 0,0.25 -0.125,0.357 -0.357,0.357 l -2.087,0 C 1.07,0.785 0.482,0.535 0,0"
                     id="path5924"
                     style="fill:#575656;fill-opacity:1;fill-rule:nonzero;stroke:none" />
                </g>
              </g>
              <g
                 transform="matrix(0.2988129,0,0,-0.3156738,754.63019,461.98889)"
                 id="g5926">
                <g
                   transform="translate(177.4259,-218.9973)"
                   id="g5928">
                  <path
                     d="M 0,0 C 0.374,0 0.516,0.196 0.516,0.517 0.516,0.891 0.374,1.034 0,1.034 -0.322,1.034 -0.535,0.891 -0.535,0.517 -0.535,0.196 -0.322,0 0,0"
                     id="path5930"
                     style="fill:#575656;fill-opacity:1;fill-rule:nonzero;stroke:none" />
                </g>
              </g>
              <g
                 transform="matrix(0.2988129,0,0,-0.3156738,754.63019,461.98889)"
                 id="g5932">
                <g
                   transform="translate(176.7829,-215.1633)"
                   id="g5934">
                  <path
                     d="m 0,0 c 0,-0.268 0.108,-0.375 0.375,-0.375 0.232,0 0.339,0.107 0.339,0.375 l 0,3.958 c 0,1.463 0.303,2.515 0.927,3.157 l 1.088,1.016 0.089,0.25 C 2.818,8.488 2.8,8.577 2.729,8.631 2.64,8.72 2.604,8.738 2.48,8.738 L 2.212,8.631 1.159,7.596 C 0.393,6.812 0,5.581 0,3.941 L 0,0 z"
                     id="path5936"
                     style="fill:#575656;fill-opacity:1;fill-rule:nonzero;stroke:none" />
                </g>
              </g>
              <g
                 transform="matrix(0.2988129,0,0,-0.3156738,754.63019,461.98889)"
                 id="g5938">
                <g
                   transform="translate(169.597,-235.5643)"
                   id="g5940">
                  <path
                     d="m 0,0 c 0,-1.248 0.446,-2.336 1.32,-3.245 0.909,-0.892 1.979,-1.356 3.245,-1.356 l 2.301,0 c 1.248,0 2.353,0.464 3.227,1.356 0.874,0.909 1.337,1.997 1.337,3.245 l 0,8.471 c 0,0.802 -0.534,1.355 -1.337,1.355 -0.785,0 -1.355,-0.553 -1.355,-1.355 L 8.738,0 c 0,-0.553 -0.16,-0.981 -0.553,-1.373 C 7.81,-1.748 7.365,-1.926 6.883,-1.926 l -2.3,0 c -0.536,0 -0.981,0.178 -1.356,0.553 C 2.836,-0.981 2.674,-0.553 2.674,0 l 0,8.471 C 2.674,9.273 2.122,9.826 1.32,9.826 0.517,9.826 0,9.273 0,8.471 L 0,0 z"
                     id="path5942"
                     style="fill:#575656;fill-opacity:1;fill-rule:nonzero;stroke:none" />
                </g>
              </g>
              <g
                 transform="matrix(0.2988129,0,0,-0.3156738,754.63019,461.98889)"
                 id="g5944">
                <g
                   transform="translate(166.939,-207.2103)"
                   id="g5946">
                  <path
                     d="m 0,0 c -0.552,-0.535 -0.801,-1.159 -0.801,-1.89 l 0,-3.763 c 0,-0.749 0.249,-1.373 0.801,-1.908 0.518,-0.535 1.142,-0.767 1.873,-0.767 l 3.995,0 c 0.25,0 0.356,0.107 0.356,0.375 0,0.214 -0.106,0.285 -0.356,0.285 l -3.995,0 c -0.552,0 -0.999,0.214 -1.373,0.624 -0.41,0.393 -0.606,0.856 -0.606,1.391 l 0,3.763 c 0,0.553 0.196,1.016 0.606,1.373 0.374,0.428 0.821,0.624 1.373,0.624 l 3.995,0 c 0.25,0 0.356,0.089 0.356,0.321 0,0.25 -0.106,0.357 -0.356,0.357 l -3.995,0 C 1.142,0.785 0.518,0.535 0,0"
                     id="path5948"
                     style="fill:#575656;fill-opacity:1;fill-rule:nonzero;stroke:none" />
                </g>
              </g>
              <g
                 transform="matrix(0.2988129,0,0,-0.3156738,754.63019,461.98889)"
                 id="g5950">
                <g
                   transform="translate(160.698,-207.1923)"
                   id="g5952">
                  <path
                     d="M 0,0 C 0.464,0 0.857,-0.161 1.231,-0.518 1.57,-0.838 1.748,-1.23 1.748,-1.748 1.748,-2.229 1.57,-2.657 1.231,-2.96 0.857,-3.335 0.464,-3.478 0,-3.478 c -0.695,0 -1.283,-0.267 -1.747,-0.749 -0.481,-0.463 -0.731,-1.034 -0.731,-1.729 0,-0.678 0.25,-1.266 0.731,-1.748 0.464,-0.428 1.052,-0.677 1.747,-0.677 l 2.07,0 c 0.249,0 0.391,0.089 0.391,0.339 0,0.231 -0.142,0.338 -0.391,0.338 l -2.051,0 c -0.5,0 -0.892,0.196 -1.267,0.517 -0.321,0.375 -0.499,0.767 -0.499,1.267 0,0.463 0.178,0.873 0.499,1.212 0.375,0.321 0.767,0.535 1.267,0.535 0.659,0 1.23,0.214 1.693,0.695 0.5,0.5 0.749,1.053 0.749,1.73 0,0.678 -0.249,1.23 -0.749,1.73 C 1.249,0.481 0.678,0.713 0,0.713 l -2.122,0 C -2.336,0.713 -2.478,0.606 -2.478,0.375 -2.478,0.107 -2.336,0 -2.122,0 L 0,0 z"
                     id="path5954"
                     style="fill:#575656;fill-opacity:1;fill-rule:nonzero;stroke:none" />
                </g>
              </g>
              <g
                 transform="matrix(0.2988129,0,0,-0.3156738,754.63019,461.98889)"
                 id="g5956">
                <g
                   transform="translate(163.392,-232.9963)"
                   id="g5958">
                  <path
                     d="m 0,0 c -0.803,0.784 -1.731,1.195 -2.836,1.23 l 0,0.018 -4.869,0 0,1.338 c 0,0.552 0.161,0.981 0.518,1.355 0.32,0.375 0.678,0.535 1.123,0.535 l 2.907,0 c 0.802,0 1.355,0.553 1.355,1.337 0,0.803 -0.553,1.338 -1.355,1.338 l -2.907,0 c -1.213,0 -2.265,-0.464 -3.102,-1.391 -0.803,-0.892 -1.213,-1.979 -1.213,-3.21 l 0,-5.207 c 0,-1.266 0.464,-2.372 1.355,-3.264 0.909,-0.891 1.997,-1.355 3.245,-1.355 l 2.444,0 c 1.248,0 2.318,0.428 3.21,1.231 0.909,0.838 1.355,1.854 1.355,3.031 C 1.23,-1.837 0.82,-0.82 0,0 m -2.89,-1.123 c 0.5,0 0.874,-0.161 1.195,-0.5 0.322,-0.339 0.482,-0.891 0.482,-1.373 0,-0.464 -0.197,-0.838 -0.553,-1.177 -0.41,-0.392 -0.874,-0.57 -1.427,-0.57 l -2.55,0 c -0.552,0 -1.016,0.196 -1.426,0.624 -0.393,0.41 -0.571,0.874 -0.571,1.444 l 0,1.552 4.85,0 z"
                     id="path5960"
                     style="fill:#575656;fill-opacity:1;fill-rule:nonzero;stroke:none" />
                </g>
              </g>
              <g
                 transform="matrix(0.2988129,0,0,-0.3156738,754.63019,461.98889)"
                 id="g5962">
                <g
                   transform="translate(147.217,-214.8783)"
                   id="g5964">
                  <path
                     d="m 0,0 0,-0.66 0.214,0 c 0.107,0 0.178,0.054 0.286,0.125 l 0.124,0.25 -0.124,0.16 C 0.392,-0.018 0.321,0 0.214,0 L 0,0 z"
                     id="path5966"
                     style="fill:#575656;fill-opacity:1;fill-rule:nonzero;stroke:none" />
                </g>
              </g>
              <g
                 transform="matrix(0.2988129,0,0,-0.3156738,754.63019,461.98889)"
                 id="g5968">
                <g
                   transform="translate(142.7949,-227.0933)"
                   id="g5970">
                  <path
                     d="m 0,0 0,-14.356 c 0,-1.23 0.41,-2.318 1.212,-3.209 0.839,-0.928 1.873,-1.391 3.05,-1.391 l 1.962,0 c 0.82,0 1.354,0.552 1.354,1.355 0,0.767 -0.534,1.302 -1.354,1.302 l -1.962,0 c -0.428,0 -0.767,0.196 -1.088,0.553 -0.357,0.374 -0.499,0.82 -0.499,1.39 l 0,1.302 1.925,0 c 0.785,0 1.32,0.517 1.32,1.32 0,0.802 -0.535,1.337 -1.32,1.337 l -1.925,0 0,10.415 C 2.675,0.802 2.14,1.301 1.354,1.301 0.553,1.301 0,0.802 0,0"
                     id="path5972"
                     style="fill:#575656;fill-opacity:1;fill-rule:nonzero;stroke:none" />
                </g>
              </g>
              <g
                 transform="matrix(0.2988129,0,0,-0.3156738,754.63019,461.98889)"
                 id="g5974">
                <g
                   transform="translate(141.725,-207.2103)"
                   id="g5976">
                  <path
                     d="m 0,0 c -0.536,-0.535 -0.803,-1.159 -0.803,-1.89 l 0,-3.763 c 0,-0.749 0.232,-1.373 0.714,-1.908 0.499,-0.535 1.051,-0.767 1.765,-0.767 l 3.816,0 0,0.66 -3.798,0 c -0.499,0 -0.928,0.214 -1.267,0.624 -0.32,0.393 -0.516,0.856 -0.516,1.391 l 0,3.763 c 0,0.553 0.214,1.016 0.57,1.373 0.375,0.428 0.856,0.624 1.409,0.624 l 1.622,0 c 0.535,0 1.017,-0.196 1.409,-0.624 0.374,-0.357 0.571,-0.82 0.571,-1.373 l 0,-5.778 0.214,0 c 0.107,0 0.178,-0.018 0.286,-0.125 l 0.124,-0.16 -0.124,-0.25 C 5.884,-8.274 5.813,-8.328 5.706,-8.328 l -0.214,0 0,-3.869 c 0,-0.215 0.125,-0.339 0.357,-0.339 0.267,0 0.338,0.124 0.338,0.339 l 0,10.307 C 6.187,-1.159 5.92,-0.535 5.439,0 4.921,0.535 4.261,0.785 3.531,0.785 l -1.641,0 C 1.141,0.785 0.517,0.535 0,0"
                     id="path5978"
                     style="fill:#575656;fill-opacity:1;fill-rule:nonzero;stroke:none" />
                </g>
              </g>
              <g
                 transform="matrix(0.2988129,0,0,-0.3156738,754.63019,461.98889)"
                 id="g5980">
                <g
                   transform="translate(131.738,-227.0933)"
                   id="g5982">
                  <path
                     d="m 0,0 0,-14.356 c 0,-1.23 0.393,-2.318 1.213,-3.209 0.838,-0.928 1.872,-1.391 3.049,-1.391 l 1.962,0 c 0.82,0 1.355,0.552 1.355,1.355 0,0.767 -0.535,1.302 -1.355,1.302 l -1.962,0 c -0.41,0 -0.749,0.178 -1.087,0.553 -0.339,0.374 -0.518,0.82 -0.518,1.39 l 0,1.302 1.944,0 c 0.767,0 1.32,0.535 1.32,1.338 0,0.784 -0.535,1.319 -1.32,1.319 l -1.944,0 0,10.397 C 2.657,0.802 2.14,1.301 1.356,1.301 0.535,1.301 0,0.802 0,0"
                     id="path5984"
                     style="fill:#575656;fill-opacity:1;fill-rule:nonzero;stroke:none" />
                </g>
              </g>
              <g
                 transform="matrix(0.2988129,0,0,-0.3156738,754.63019,461.98889)"
                 id="g5986">
                <g
                   transform="translate(130.935,-210.6703)"
                   id="g5988">
                  <path
                     d="M 0,0 -0.16,-0.213 0,-0.41 c 0.054,-0.107 0.125,-0.16 0.25,-0.16 l 0.037,0 0,0.695 -0.037,0 C 0.125,0.125 0.054,0.09 0,0"
                     id="path5990"
                     style="fill:#575656;fill-opacity:1;fill-rule:nonzero;stroke:none" />
                </g>
              </g>
              <g
                 transform="matrix(0.2988129,0,0,-0.3156738,754.63019,461.98889)"
                 id="g5992">
                <g
                   transform="translate(136.8739,-213.0953)"
                   id="g5994">
                  <path
                     d="m 0,0 c 0,-0.499 -0.214,-0.873 -0.606,-1.248 -0.411,-0.321 -0.856,-0.535 -1.391,-0.535 l -1.623,0 c -0.553,0 -1.034,0.214 -1.427,0.624 -0.392,0.393 -0.605,0.838 -0.605,1.373 l 0,1.641 -0.037,0 c -0.125,0 -0.196,0.053 -0.25,0.16 l -0.16,0.197 0.16,0.213 c 0.054,0.09 0.125,0.125 0.25,0.125 l 0.037,0 0,1.48 c 0,0.518 0.213,0.981 0.552,1.338 0.321,0.428 0.749,0.624 1.266,0.624 l 2.087,0 c 0.214,0 0.32,0.089 0.32,0.321 0,0.25 -0.106,0.357 -0.32,0.357 l -2.087,0 C -4.565,6.67 -5.136,6.42 -5.617,5.885 -6.099,5.35 -6.33,4.726 -6.33,3.995 l 0,-3.763 c 0,-0.749 0.267,-1.373 0.784,-1.908 0.535,-0.535 1.177,-0.767 1.926,-0.767 l 1.623,0 c 0.784,0 1.391,0.232 1.908,0.714 0.535,0.463 0.767,1.069 0.767,1.729 0,0.678 -0.232,1.373 -0.713,1.855 -0.5,0.464 -1.053,0.695 -1.783,0.695 l -3.834,0 0,-0.695 3.834,0 c 0.516,0 0.944,-0.196 1.283,-0.499 C -0.214,0.981 0,0.482 0,0"
                     id="path5996"
                     style="fill:#575656;fill-opacity:1;fill-rule:nonzero;stroke:none" />
                </g>
              </g>
              <g
                 transform="matrix(0.2988129,0,0,-0.3156738,754.63019,461.98889)"
                 id="g5998">
                <g
                   transform="translate(125.657,-211.2223)"
                   id="g6000">
                  <path
                     d="m 0,0 0,-3.941 c 0,-0.268 0.125,-0.375 0.358,-0.375 0.231,0 0.391,0.107 0.391,0.375 l 0,3.958 c 0,1.463 0.268,2.515 0.892,3.157 L 2.729,4.19 2.8,4.44 C 2.8,4.547 2.782,4.636 2.729,4.69 2.622,4.779 2.586,4.797 2.48,4.797 2.39,4.797 2.319,4.761 2.212,4.69 L 1.159,3.655 C 0.375,2.871 0,1.64 0,0"
                     id="path6002"
                     style="fill:#575656;fill-opacity:1;fill-rule:nonzero;stroke:none" />
                </g>
              </g>
              <g
                 transform="matrix(0.2988129,0,0,-0.3156738,754.63019,461.98889)"
                 id="g6004">
                <g
                   transform="translate(126.121,-218.9973)"
                   id="g6006">
                  <path
                     d="M 0,0 C 0.356,0 0.535,0.196 0.535,0.517 0.535,0.891 0.356,1.034 0,1.034 -0.339,1.034 -0.535,0.891 -0.535,0.517 -0.535,0.196 -0.339,0 0,0"
                     id="path6008"
                     style="fill:#575656;fill-opacity:1;fill-rule:nonzero;stroke:none" />
                </g>
              </g>
              <g
                 transform="matrix(0.2988129,0,0,-0.3156738,754.63019,461.98889)"
                 id="g6010">
                <g
                   transform="translate(122.198,-208.0303)"
                   id="g6012">
                  <path
                     d="m 0,0 c 0.553,0.624 0.856,0.945 0.927,0.945 0.09,0.107 0.125,0.196 0.125,0.268 0,0.106 -0.035,0.16 -0.106,0.231 C 0.856,1.515 0.821,1.551 0.659,1.551 0.588,1.551 0.517,1.515 0.41,1.444 L -0.481,0.517 c -0.696,-0.714 -1.053,-1.873 -1.053,-3.549 l 0,-8.167 c 0,-0.232 0.09,-0.339 0.339,-0.339 0.25,0 0.392,0.107 0.392,0.339 l 0,8.167 C -0.803,-1.57 -0.535,-0.536 0,0"
                     id="path6014"
                     style="fill:#575656;fill-opacity:1;fill-rule:nonzero;stroke:none" />
                </g>
              </g>
              <g
                 transform="matrix(0.2988129,0,0,-0.3156738,754.63019,461.98889)"
                 id="g6016">
                <g
                   transform="translate(119.06,-225.7203)"
                   id="g6018">
                  <path
                     d="m 0,0 c -1.249,0 -2.319,-0.41 -3.21,-1.213 -0.892,-0.838 -1.356,-1.855 -1.356,-3.049 0,-1.159 0.428,-2.176 1.248,-2.996 0.803,-0.785 1.731,-1.195 2.818,-1.231 l 0,-0.017 4.886,0 0,-1.356 c 0,-0.535 -0.16,-0.981 -0.499,-1.355 -0.339,-0.357 -0.695,-0.535 -1.141,-0.535 l -2.907,0 c -0.82,0 -1.355,-0.535 -1.355,-1.302 0,-0.82 0.535,-1.355 1.355,-1.355 l 2.907,0 c 1.213,0 2.264,0.464 3.085,1.391 0.82,0.892 1.212,1.962 1.212,3.21 l 0,5.207 c 0,1.248 -0.446,2.354 -1.355,3.246 C 4.796,-0.446 3.691,0 2.443,0 L 0,0 z m -1.641,-5.653 c -0.321,0.339 -0.464,0.891 -0.464,1.391 0,0.463 0.179,0.82 0.553,1.177 0.41,0.374 0.874,0.552 1.427,0.552 l 2.532,0 c 0.552,0 1.034,-0.178 1.427,-0.606 0.41,-0.428 0.588,-0.874 0.588,-1.444 l 0,-1.57 -4.869,0 c -0.481,0 -0.855,0.179 -1.194,0.5"
                     id="path6020"
                     style="fill:#575656;fill-opacity:1;fill-rule:nonzero;stroke:none" />
                </g>
              </g>
              <g
                 transform="matrix(0.2988129,0,0,-0.3156738,754.63019,461.98889)"
                 id="g6022">
                <g
                   transform="translate(109.982,-206.7823)"
                   id="g6024">
                  <path
                     d="m 0,0 0.125,-0.179 c 0.072,-0.124 0.161,-0.142 0.304,-0.142 l 0.035,0 0,0.678 -0.035,0 C 0.286,0.357 0.197,0.303 0.125,0.196 L 0,0 z"
                     id="path6026"
                     style="fill:#575656;fill-opacity:1;fill-rule:nonzero;stroke:none" />
                </g>
              </g>
              <g
                 transform="matrix(0.2988129,0,0,-0.3156738,754.63019,461.98889)"
                 id="g6028">
                <g
                   transform="translate(115.975,-214.7713)"
                   id="g6030">
                  <path
                     d="m 0,0 c 0.535,0.535 0.784,1.159 0.784,1.908 l 0,3.763 c 0,0.731 -0.249,1.355 -0.713,1.89 -0.518,0.535 -1.07,0.785 -1.748,0.785 l -3.852,0 0,-0.678 3.852,0 c 0.481,0 0.891,-0.196 1.23,-0.624 0.358,-0.357 0.518,-0.82 0.518,-1.373 l 0,-3.763 c 0,-0.535 -0.179,-0.998 -0.589,-1.391 -0.392,-0.41 -0.82,-0.624 -1.408,-0.624 l -1.623,0 c -0.553,0 -1.034,0.214 -1.409,0.624 -0.374,0.393 -0.571,0.856 -0.571,1.391 l 0,5.76 -0.035,0 c -0.143,0 -0.232,0.018 -0.304,0.142 l -0.125,0.179 0.125,0.196 c 0.072,0.107 0.161,0.161 0.304,0.161 l 0.035,0 0,3.852 c 0,0.231 -0.142,0.356 -0.374,0.356 -0.215,0 -0.357,-0.125 -0.357,-0.356 l 0,-10.29 c 0,-0.749 0.304,-1.373 0.82,-1.908 0.535,-0.535 1.124,-0.767 1.891,-0.767 l 1.623,0 c 0.749,0 1.39,0.232 1.926,0.767"
                     id="path6032"
                     style="fill:#575656;fill-opacity:1;fill-rule:nonzero;stroke:none" />
                </g>
              </g>
              <g
                 transform="matrix(0.2988129,0,0,-0.3156738,754.63019,461.98889)"
                 id="g6034">
                <g
                   transform="translate(100.835,-237.5073)"
                   id="g6036">
                  <path
                     d="m 0,0 0,10.414 c 0,0.802 -0.535,1.355 -1.32,1.355 -0.802,0 -1.337,-0.553 -1.337,-1.355 l 0,-17.619 c 0,-0.767 0.535,-1.319 1.337,-1.319 0.767,0 1.32,0.552 1.32,1.319 l 0,4.547 4.225,0 c 1.25,0 2.319,0.464 3.21,1.356 0.892,0.909 1.338,1.997 1.338,3.245 l 0,8.471 c 0,0.802 -0.535,1.355 -1.338,1.355 -0.801,0 -1.336,-0.553 -1.336,-1.355 l 0,-8.471 C 6.099,1.39 5.92,0.944 5.527,0.57 5.153,0.195 4.725,0 4.19,0 L 0,0 z"
                     id="path6038"
                     style="fill:#575656;fill-opacity:1;fill-rule:nonzero;stroke:none" />
                </g>
              </g>
              <g
                 transform="matrix(0.2988129,0,0,-0.3156738,754.63019,461.98889)"
                 id="g6040">
                <g
                   transform="translate(99.8,-207.1033)"
                   id="g6042">
                  <path
                     d="m 0,0 0.053,0 0,0.678 -0.053,0 c -0.107,0 -0.214,-0.054 -0.267,-0.161 L -0.392,0.321 -0.267,0.142 C -0.214,0.018 -0.107,0 0,0"
                     id="path6044"
                     style="fill:#575656;fill-opacity:1;fill-rule:nonzero;stroke:none" />
                </g>
              </g>
              <g
                 transform="matrix(0.2988129,0,0,-0.3156738,754.63019,461.98889)"
                 id="g6046">
                <g
                   transform="translate(99.158,-212.8633)"
                   id="g6048">
                  <path
                     d="m 0,0 c 0,-0.749 0.285,-1.373 0.803,-1.908 0.516,-0.535 1.159,-0.767 1.89,-0.767 l 1.623,0 c 0.731,0 1.373,0.232 1.925,0.767 0.518,0.535 0.786,1.159 0.786,1.908 l 0,3.763 c 0,0.731 -0.233,1.355 -0.732,1.89 C 5.814,6.188 5.243,6.438 4.548,6.438 l -3.853,0 0,-0.678 3.853,0 C 5.029,5.76 5.44,5.564 5.778,5.136 6.135,4.779 6.313,4.316 6.313,3.763 L 6.313,0 c 0,-0.535 -0.178,-0.998 -0.571,-1.391 -0.374,-0.41 -0.856,-0.624 -1.426,-0.624 l -1.623,0 c -0.553,0 -1.035,0.214 -1.391,0.624 C 0.909,-0.998 0.695,-0.535 0.695,0 l 0,5.76 -0.053,0 C 0.535,5.76 0.428,5.778 0.375,5.902 L 0.25,6.081 0.375,6.277 c 0.053,0.107 0.16,0.161 0.267,0.161 l 0.053,0 0,3.852 c 0,0.231 -0.125,0.356 -0.338,0.356 C 0.125,10.646 0,10.521 0,10.29 L 0,0 z"
                     id="path6050"
                     style="fill:#575656;fill-opacity:1;fill-rule:nonzero;stroke:none" />
                </g>
              </g>
              <g
                 transform="matrix(0.2988129,0,0,-0.3156738,754.63019,461.98889)"
                 id="g6052">
                <g
                   transform="translate(95.628,-210.7953)"
                   id="g6054">
                  <path
                     d="m 0,0 c -0.054,0.125 -0.144,0.179 -0.286,0.179 l -0.143,0 0,-0.696 0.143,0 c 0.142,0 0.232,0.072 0.286,0.143 L 0.142,-0.178 0,0 z"
                     id="path6056"
                     style="fill:#575656;fill-opacity:1;fill-rule:nonzero;stroke:none" />
                </g>
              </g>
              <g
                 transform="matrix(0.2988129,0,0,-0.3156738,754.63019,461.98889)"
                 id="g6058">
                <g
                   transform="translate(90.171,-207.6383)"
                   id="g6060">
                  <path
                     d="m 0,0 c 0.356,0.339 0.82,0.535 1.355,0.535 l 1.659,0 c 0.552,0 1.034,-0.196 1.408,-0.624 0.41,-0.357 0.606,-0.82 0.606,-1.338 l 0,-1.551 0.143,0 c 0.142,0 0.232,-0.054 0.286,-0.179 L 5.599,-3.335 5.457,-3.531 C 5.403,-3.602 5.313,-3.674 5.171,-3.674 l -0.143,0 0,-1.569 C 5.028,-5.778 4.85,-6.223 4.493,-6.616 4.119,-7.026 3.744,-7.24 3.227,-7.24 l -2.068,0 c -0.268,0 -0.393,-0.071 -0.393,-0.285 0,-0.268 0.125,-0.375 0.393,-0.375 l 2.068,0 c 0.678,0 1.285,0.232 1.801,0.767 0.446,0.535 0.678,1.159 0.678,1.908 l 0,3.763 c 0,0.731 -0.249,1.355 -0.803,1.89 -0.516,0.535 -1.14,0.785 -1.889,0.785 l -1.659,0 C 0.659,1.213 0,0.981 -0.535,0.517 c -0.499,-0.499 -0.767,-1.052 -0.767,-1.73 0,-0.695 0.232,-1.266 0.713,-1.765 0.481,-0.482 1.07,-0.696 1.748,-0.696 l 3.869,0 0,0.696 -3.869,0 c -0.481,0 -0.91,0.178 -1.267,0.499 -0.32,0.321 -0.481,0.749 -0.481,1.266 0,0.464 0.179,0.874 0.589,1.213"
                     id="path6062"
                     style="fill:#575656;fill-opacity:1;fill-rule:nonzero;stroke:none" />
                </g>
              </g>
              <g
                 transform="matrix(0.2988129,0,0,-0.3156738,754.63019,461.98889)"
                 id="g6064">
                <g
                   transform="translate(84.215,-230.3393)"
                   id="g6066">
                  <path
                     d="m 0,0 c 0,0.535 0.178,0.981 0.553,1.355 0.392,0.393 0.82,0.571 1.336,0.571 l 5.565,0 c 0.802,0 1.354,0.535 1.354,1.32 0,0.802 -0.552,1.355 -1.354,1.355 l -5.565,0 C 0.641,4.601 -0.464,4.137 -1.338,3.228 -2.212,2.336 -2.676,1.249 -2.676,0 l 0,-5.225 c 0,-1.23 0.464,-2.336 1.32,-3.245 0.892,-0.892 1.997,-1.356 3.245,-1.356 l 5.565,0 c 0.802,0 1.354,0.553 1.354,1.356 0,0.784 -0.552,1.319 -1.354,1.319 l -5.565,0 c -0.516,0 -0.944,0.178 -1.336,0.553 C 0.178,-6.206 0,-5.778 0,-5.225 L 0,0 z"
                     id="path6068"
                     style="fill:#575656;fill-opacity:1;fill-rule:nonzero;stroke:none" />
                </g>
              </g>
              <g
                 transform="matrix(0.2988129,0,0,-0.3156738,754.63019,461.98889)"
                 id="g6070">
                <g
                   transform="translate(77.92,-214.8963)"
                   id="g6072">
                  <path
                     d="m 0,0 0,8.079 c 0,0.231 -0.108,0.338 -0.303,0.338 -0.268,0 -0.411,-0.107 -0.411,-0.338 l 0,-10.308 c 0,-0.713 0.25,-1.373 0.714,-1.908 0.499,-0.517 1.07,-0.784 1.765,-0.784 l 1.409,0 c 0.267,0 0.357,0.124 0.357,0.356 0,0.232 -0.09,0.339 -0.357,0.339 l -1.409,0 c -0.481,0 -0.874,0.196 -1.23,0.588 C 0.178,-3.245 0,-2.782 0,-2.229 l 0,1.552 2.015,0 c 0.214,0 0.338,0.089 0.338,0.339 C 2.353,-0.107 2.229,0 2.015,0 L 0,0 z"
                     id="path6074"
                     style="fill:#575656;fill-opacity:1;fill-rule:nonzero;stroke:none" />
                </g>
              </g>
              <g
                 transform="matrix(0.2988129,0,0,-0.3156738,754.63019,461.98889)"
                 id="g6076">
                <g
                   transform="translate(67.773,-235.8853)"
                   id="g6078">
                  <path
                     d="m 0,0 c 0,-1.195 0.392,-2.229 1.23,-3.032 0.803,-0.819 1.819,-1.23 3.032,-1.23 l 2.907,0 c 0.802,0 1.355,0.535 1.355,1.338 0,0.784 -0.553,1.319 -1.355,1.319 l -2.889,0 c -0.464,0 -0.821,0.143 -1.159,0.482 -0.321,0.321 -0.464,0.677 -0.464,1.141 0,0.428 0.143,0.767 0.482,1.088 0.32,0.321 0.677,0.481 1.141,0.481 1.159,0 2.157,0.41 2.978,1.249 0.838,0.82 1.266,1.836 1.266,3.013 0,1.159 -0.428,2.176 -1.266,2.996 -0.821,0.838 -1.855,1.248 -2.996,1.248 l -2.96,0 C 0.517,10.093 0,9.576 0,8.792 0,7.989 0.517,7.436 1.302,7.436 l 2.96,0 C 4.69,7.436 5.029,7.294 5.385,6.973 5.688,6.651 5.849,6.313 5.849,5.849 5.849,5.403 5.688,5.029 5.385,4.708 5.029,4.405 4.69,4.244 4.262,4.244 3.049,4.244 2.015,3.834 1.212,2.996 0.392,2.176 0,1.159 0,0"
                     id="path6080"
                     style="fill:#575656;fill-opacity:1;fill-rule:nonzero;stroke:none" />
                </g>
              </g>
              <g
                 transform="matrix(0.2988129,0,0,-0.3156738,754.63019,461.98889)"
                 id="g6082">
                <g
                   transform="translate(73.872,-210.9372)"
                   id="g6084">
                  <path
                     d="M 0,0 C 0,1.266 -0.446,2.336 -1.302,3.21 -2.211,4.12 -3.282,4.565 -4.548,4.565 -5.814,4.565 -6.866,4.12 -7.793,3.21 -8.667,2.336 -9.131,1.266 -9.131,0 c 0,-1.231 0.464,-2.318 1.338,-3.263 0.927,-0.856 1.979,-1.32 3.245,-1.32 1.266,0 2.337,0.464 3.246,1.32 C -0.446,-2.318 0,-1.231 0,0 m -8.417,0 c 0,1.052 0.374,1.944 1.123,2.693 0.749,0.766 1.676,1.159 2.746,1.159 1.052,0 1.98,-0.393 2.711,-1.159 C -1.07,1.944 -0.678,1.052 -0.678,0 c 0,-1.07 -0.392,-1.98 -1.159,-2.746 -0.731,-0.749 -1.659,-1.124 -2.711,-1.124 -1.07,0 -1.997,0.375 -2.746,1.124 C -8.043,-1.98 -8.417,-1.07 -8.417,0"
                     id="path6086"
                     style="fill:#575656;fill-opacity:1;fill-rule:nonzero;stroke:none" />
                </g>
              </g>
              <g
                 transform="matrix(0.2988129,0,0,-0.3156738,754.63019,461.98889)"
                 id="g6088">
                <g
                   transform="translate(54.488,-215.2173)"
                   id="g6090">
                  <path
                     d="m 0,0 0,0.196 c 0,-0.267 -0.107,-0.374 -0.339,-0.374 -0.178,0 -0.285,0.053 -0.339,0.178 0,-0.232 0.089,-0.356 0.321,-0.356 C -0.107,-0.356 0,-0.232 0,0"
                     id="path6092"
                     style="fill:#575656;fill-opacity:1;fill-rule:nonzero;stroke:none" />
                </g>
              </g>
              <g
                 transform="matrix(0.2988129,0,0,-0.3156738,754.63019,461.98889)"
                 id="g6094">
                <g
                   transform="translate(54.488,-210.6522)"
                   id="g6096">
                  <path
                     d="m 0,0 0,1.498 c 0,0.678 -0.232,1.266 -0.696,1.748 l 0,-1.552 0.018,-0.196 0,-6.045 0,-0.018 c 0.054,-0.125 0.161,-0.178 0.339,-0.178 0.232,0 0.339,0.107 0.339,0.374 L 0,0 z"
                     id="path6098"
                     style="fill:#575656;fill-opacity:1;fill-rule:nonzero;stroke:none" />
                </g>
              </g>
              <g
                 transform="matrix(0.2988129,0,0,-0.3156738,754.63019,461.98889)"
                 id="g6100">
                <g
                   transform="translate(53.81,-215.1992)"
                   id="g6102">
                  <path
                     d="m 0,0 0,6.045 -0.018,0.196 0,-6.063 L 0,0 z"
                     id="path6104"
                     style="fill:#575656;fill-opacity:1;fill-rule:nonzero;stroke:none" />
                </g>
              </g>
              <g
                 transform="matrix(0.2988129,0,0,-0.3156738,754.63019,461.98889)"
                 id="g6106">
                <g
                   transform="translate(55.451,-228.2703)"
                   id="g6108">
                  <path
                     d="M 0,0 2.549,0 C 3.12,0 3.566,-0.196 3.976,-0.607 4.369,-1.035 4.547,-1.498 4.547,-2.051 l 0,-1.569 -4.851,0 0,0.017 c -0.481,0 -0.856,0.143 -1.176,0.482 -0.339,0.339 -0.482,0.891 -0.482,1.391 0,0.446 0.178,0.82 0.553,1.159 C -0.999,-0.179 -0.553,0 0,0 m 7.186,-7.294 0,5.225 C 7.186,-0.82 6.722,0.267 5.831,1.177 4.922,2.068 3.834,2.532 2.585,2.532 l -2.443,0 c -1.248,0 -2.318,-0.428 -3.21,-1.248 -0.891,-0.821 -1.355,-1.837 -1.355,-3.014 0,-1.177 0.428,-2.176 1.248,-3.014 0.785,-0.784 1.73,-1.195 2.818,-1.23 l 0,-0.018 4.886,0 0,-1.338 C 4.529,-7.864 4.351,-8.31 4.012,-8.703 3.691,-9.059 3.317,-9.22 2.871,-9.22 l -2.889,0 c -0.821,0 -1.355,-0.535 -1.355,-1.319 0,-0.803 0.534,-1.356 1.355,-1.356 l 2.889,0 c 1.23,0 2.246,0.464 3.102,1.391 0.803,0.892 1.213,1.98 1.213,3.21"
                     id="path6110"
                     style="fill:#575656;fill-opacity:1;fill-rule:nonzero;stroke:none" />
                </g>
              </g>
              <g
                 transform="matrix(0.2988129,0,0,-0.3156738,754.63019,461.98889)"
                 id="g6112">
                <g
                   transform="translate(53.792,-208.9582)"
                   id="g6114">
                  <path
                     d="m 0,0 0,1.552 -0.089,0.107 c -0.517,0.535 -1.142,0.82 -1.872,0.82 l 0,-0.713 c 0.552,0 0.998,-0.179 1.391,-0.571 C -0.232,0.856 -0.036,0.464 0,0"
                     id="path6116"
                     style="fill:#575656;fill-opacity:1;fill-rule:nonzero;stroke:none" />
                </g>
              </g>
              <g
                 transform="matrix(0.2988129,0,0,-0.3156738,754.63019,461.98889)"
                 id="g6118">
                <g
                   transform="translate(52.294,-202.2173)"
                   id="g6120">
                  <path
                     d="m 0,0 c -0.053,0.054 -0.142,0.089 -0.25,0.089 l -0.213,-0.125 -0.089,-0.249 0.035,-0.232 1.07,-1.017 C 1.177,-2.211 1.48,-3.121 1.498,-4.637 l 0,-0.552 c 0.464,-0.482 0.696,-1.07 0.696,-1.748 l 0,2.265 c 0,1.658 -0.339,2.835 -1.124,3.584 L 0,0 z"
                     id="path6122"
                     style="fill:#575656;fill-opacity:1;fill-rule:nonzero;stroke:none" />
                </g>
              </g>
              <g
                 transform="matrix(0.2988129,0,0,-0.3156738,754.63019,461.98889)"
                 id="g6124">
                <g
                   transform="translate(50.19,-206.4793)"
                   id="g6126">
                  <path
                     d="m 0,0 0,-0.713 0.018,0 1.623,0 L 1.641,0 0,0 z"
                     id="path6128"
                     style="fill:#575656;fill-opacity:1;fill-rule:nonzero;stroke:none" />
                </g>
              </g>
              <g
                 transform="matrix(0.2988129,0,0,-0.3156738,754.63019,461.98889)"
                 id="g6130">
                <g
                   transform="translate(48.317,-207.2993)"
                   id="g6132">
                  <path
                     d="m 0,0 c -0.534,-0.518 -0.784,-1.123 -0.784,-1.855 l 0,-6.063 c 0,-0.232 0.107,-0.356 0.357,-0.356 0.249,0 0.338,0.124 0.338,0.356 l 0,6.063 c 0,0.553 0.197,0.999 0.571,1.391 0.41,0.392 0.838,0.571 1.391,0.571 l 0,0.713 C 1.16,0.82 0.482,0.535 0,0"
                     id="path6134"
                     style="fill:#575656;fill-opacity:1;fill-rule:nonzero;stroke:none" />
                </g>
              </g>
              <g
                 transform="matrix(0.2988129,0,0,-0.3156738,754.63019,461.98889)"
                 id="g6136">
                <g
                   transform="translate(41.363,-207.2463)"
                   id="g6138">
                  <path
                     d="m 0,0 c -0.499,-0.535 -0.749,-1.159 -0.749,-1.925 l 0,-10.29 c 0,-0.232 0.143,-0.356 0.392,-0.356 0.232,0 0.304,0.124 0.304,0.356 l 0,3.888 1.997,0 c 0.249,0 0.374,0.089 0.374,0.339 0,0.231 -0.125,0.338 -0.374,0.338 l -1.997,0 0,5.725 c 0,0.552 0.195,1.016 0.552,1.408 0.321,0.392 0.749,0.571 1.248,0.571 l 1.159,0 c 0.197,0 0.339,0.107 0.339,0.375 0,0.231 -0.142,0.338 -0.339,0.338 l -1.159,0 C 1.034,0.767 0.481,0.517 0,0"
                     id="path6140"
                     style="fill:#575656;fill-opacity:1;fill-rule:nonzero;stroke:none" />
                </g>
              </g>
              <g
                 transform="matrix(0.2988129,0,0,-0.3156738,754.63019,461.98889)"
                 id="g6142">
                <g
                   transform="translate(34.658,-218.8013)"
                   id="g6144">
                  <path
                     d="M 0,0 C 0.321,0 0.499,0.178 0.499,0.535 0.499,0.838 0.321,1.016 0,1.016 -0.357,1.016 -0.535,0.838 -0.535,0.535 -0.535,0.178 -0.357,0 0,0"
                     id="path6146"
                     style="fill:#575656;fill-opacity:1;fill-rule:nonzero;stroke:none" />
                </g>
              </g>
              <g
                 transform="matrix(0.2988129,0,0,-0.3156738,754.63019,461.98889)"
                 id="g6148">
                <g
                   transform="translate(34.693,-211.0443)"
                   id="g6150">
                  <path
                     d="m 0,0 c 0,1.48 0.322,2.514 0.946,3.156 l 1.088,1.052 c 0.053,0.054 0.088,0.143 0.088,0.25 0,0.107 -0.035,0.161 -0.107,0.232 L 1.784,4.797 1.498,4.69 0.464,3.638 C -0.32,2.889 -0.695,1.658 -0.695,-0.018 l 0,-3.941 c 0,-0.267 0.125,-0.392 0.356,-0.392 0.215,0 0.339,0.125 0.339,0.392 L 0,0 z"
                     id="path6152"
                     style="fill:#575656;fill-opacity:1;fill-rule:nonzero;stroke:none" />
                </g>
              </g>
              <g
                 transform="matrix(0.2988129,0,0,-0.3156738,754.63019,461.98889)"
                 id="g6154">
                <g
                   transform="translate(30.342,-237.6683)"
                   id="g6156">
                  <path
                     d="m 0,0 c -0.57,0 -1.016,0.196 -1.427,0.606 -0.409,0.428 -0.588,0.892 -0.588,1.445 l 0,1.569 4.869,0 C 3.335,3.62 3.71,3.459 4.031,3.121 4.369,2.782 4.512,2.229 4.512,1.73 4.512,1.284 4.334,0.91 3.959,0.553 3.549,0.178 3.103,0 2.551,0 L 0,0 z m -1.961,5.992 0,1.337 c 0,0.535 0.142,0.981 0.499,1.355 0.339,0.375 0.678,0.535 1.123,0.535 l 2.907,0 c 0.82,0 1.356,0.535 1.356,1.32 0,0.802 -0.536,1.337 -1.356,1.337 l -2.907,0 c -1.212,0 -2.246,-0.463 -3.085,-1.391 C -4.226,9.612 -4.636,8.506 -4.636,7.276 l 0,-5.208 c 0,-1.248 0.446,-2.336 1.355,-3.245 0.892,-0.891 1.979,-1.355 3.246,-1.355 l 2.443,0 c 1.23,0 2.318,0.41 3.192,1.212 0.909,0.838 1.373,1.873 1.373,3.05 0,1.159 -0.428,2.175 -1.266,3.014 -0.767,0.784 -1.712,1.176 -2.8,1.23 l 0,0.018 -4.868,0 z"
                     id="path6158"
                     style="fill:#575656;fill-opacity:1;fill-rule:nonzero;stroke:none" />
                </g>
              </g>
              <g
                 transform="matrix(0.2988129,0,0,-0.3156738,754.63019,461.98889)"
                 id="g6160">
                <g
                   transform="translate(25.849,-211.4193)"
                   id="g6162">
                  <path
                     d="m 0,0 c -0.482,-0.463 -0.696,-1.034 -0.696,-1.729 0,-0.678 0.214,-1.266 0.696,-1.748 0.463,-0.428 1.034,-0.677 1.729,-0.677 l 2.086,0 c 0.25,0 0.411,0.089 0.411,0.339 0,0.231 -0.143,0.338 -0.411,0.338 l -2.068,0 c -0.446,0 -0.856,0.196 -1.248,0.517 C 0.178,-2.585 0,-2.193 0,-1.693 c 0,0.463 0.178,0.873 0.499,1.212 0.392,0.321 0.802,0.535 1.248,0.535 0.678,0 1.266,0.214 1.73,0.695 0.482,0.5 0.749,1.053 0.749,1.73 0,0.678 -0.267,1.23 -0.749,1.73 C 2.995,4.708 2.425,4.94 1.729,4.94 l -2.104,0 c -0.214,0 -0.321,-0.107 -0.321,-0.338 0,-0.268 0.107,-0.375 0.321,-0.375 l 2.104,0 C 2.211,4.227 2.621,4.066 2.978,3.709 3.316,3.389 3.495,2.997 3.495,2.479 3.495,1.998 3.316,1.57 2.978,1.267 2.621,0.892 2.211,0.749 1.729,0.749 1.034,0.749 0.463,0.482 0,0"
                     id="path6164"
                     style="fill:#575656;fill-opacity:1;fill-rule:nonzero;stroke:none" />
                </g>
              </g>
              <g
                 transform="matrix(0.2988129,0,0,-0.3156738,754.63019,461.98889)"
                 id="g6166">
                <g
                   transform="translate(22.122,-228.0213)"
                   id="g6168">
                  <path
                     d="m 0,0 c 0.374,0.339 0.517,0.696 0.517,1.053 0,0.267 -0.054,0.606 -0.411,0.927 -0.231,0.249 -0.57,0.374 -0.945,0.374 -0.303,0 -0.588,-0.089 -0.838,-0.303 L -3.068,0.642 c -1.105,-1.105 -1.676,-2.96 -1.676,-5.492 l 0,-11.413 c 0,-0.784 0.535,-1.302 1.302,-1.302 0.82,0 1.355,0.518 1.355,1.302 l 0,11.413 c 0,1.765 0.321,3.013 0.91,3.602 0.963,1.07 1.141,1.23 1.177,1.248"
                     id="path6170"
                     style="fill:#575656;fill-opacity:1;fill-rule:nonzero;stroke:none" />
                </g>
              </g>
              <g
                 transform="matrix(0.2988129,0,0,-0.3156738,754.63019,461.98889)"
                 id="g6172">
                <g
                   transform="translate(18.466,-206.8173)"
                   id="g6174">
                  <path
                     d="m 0,0 0,-6.1 c 0,-0.749 0.232,-1.355 0.678,-1.89 0.445,-0.517 0.98,-0.766 1.569,-0.766 l 1.39,0 c 0.25,0 0.375,0.089 0.375,0.339 0,0.231 -0.125,0.338 -0.375,0.338 l -1.39,0 c -0.41,0 -0.803,0.214 -1.088,0.606 -0.303,0.393 -0.464,0.856 -0.464,1.391 L 0.695,0 C 0.695,0.231 0.624,0.338 0.392,0.338 0.125,0.338 0,0.231 0,0"
                     id="path6176"
                     style="fill:#575656;fill-opacity:1;fill-rule:nonzero;stroke:none" />
                </g>
              </g>
              <g
                 transform="matrix(0.2988129,0,0,-0.3156738,754.63019,461.98889)"
                 id="g6178">
                <g
                   transform="translate(7.891,-210.9733)"
                   id="g6180">
                  <path
                     d="m 0,0 c 0.071,-0.125 0.196,-0.196 0.321,-0.196 l 0.143,0 0,0.713 -0.143,0 C 0.196,0.517 0.071,0.446 0,0.357 L -0.143,0.178 0,0 z"
                     id="path6182"
                     style="fill:#575656;fill-opacity:1;fill-rule:nonzero;stroke:none" />
                </g>
              </g>
              <g
                 transform="matrix(0.2988129,0,0,-0.3156738,754.63019,461.98889)"
                 id="g6184">
                <g
                   transform="translate(8.426,-214.5933)"
                   id="g6186">
                  <path
                     d="m 0,0 c 0.571,-0.499 1.195,-0.802 1.944,-0.802 l 1.64,0 c 0.732,0 1.338,0.267 1.891,0.731 0.517,0.464 0.802,1.052 0.802,1.747 0,0.678 -0.249,1.231 -0.749,1.73 C 5.047,3.905 4.476,4.137 3.799,4.137 l -3.87,0 0,-0.713 3.87,0 c 0.499,0 0.927,-0.16 1.248,-0.517 C 5.385,2.586 5.546,2.176 5.546,1.676 5.546,1.213 5.332,0.785 4.975,0.446 4.601,0.107 4.119,-0.071 3.584,-0.071 l -1.64,0 c -0.553,0 -1.035,0.196 -1.445,0.588 -0.374,0.375 -0.57,0.821 -0.57,1.374 l 0,1.533 -0.143,0 c -0.125,0 -0.25,0.071 -0.321,0.196 l -0.143,0.178 0.143,0.179 c 0.071,0.089 0.196,0.16 0.321,0.16 l 0.143,0 0,1.552 c 0,0.535 0.178,0.999 0.535,1.391 0.338,0.392 0.749,0.571 1.23,0.571 l 2.105,0 c 0.249,0 0.374,0.125 0.374,0.32 0,0.268 -0.125,0.375 -0.374,0.375 l -2.105,0 c -0.66,0 -1.266,-0.268 -1.729,-0.785 -0.5,-0.535 -0.749,-1.195 -0.749,-1.908 l 0,-3.745 C -0.784,1.177 -0.517,0.571 0,0"
                     id="path6188"
                     style="fill:#575656;fill-opacity:1;fill-rule:nonzero;stroke:none" />
                </g>
              </g>
              <g
                 transform="matrix(0.2988129,0,0,-0.3156738,754.63019,461.98889)"
                 id="g6190">
                <g
                   transform="translate(10.798,-227.0933)"
                   id="g6192">
                  <path
                     d="m 0,0 c -0.892,0.891 -1.98,1.355 -3.228,1.355 l -2.318,0 c -1.249,0 -2.336,-0.464 -3.246,-1.355 -0.891,-0.91 -1.355,-1.997 -1.355,-3.246 l 0,-8.47 c 0,-0.803 0.553,-1.356 1.355,-1.356 0.785,0 1.32,0.553 1.32,1.356 l 0,8.47 c 0,0.553 0.178,0.981 0.553,1.355 0.392,0.393 0.82,0.571 1.373,0.571 l 2.318,0 c 0.517,0 0.928,-0.178 1.32,-0.571 0.392,-0.374 0.552,-0.802 0.552,-1.355 l 0,-8.47 c 0,-0.803 0.571,-1.356 1.374,-1.356 0.784,0 1.302,0.553 1.302,1.356 l 0,8.47 C 1.32,-1.997 0.874,-0.91 0,0"
                     id="path6194"
                     style="fill:#575656;fill-opacity:1;fill-rule:nonzero;stroke:none" />
                </g>
              </g>
              <g
                 transform="matrix(0.2988129,0,0,-0.3156738,754.63019,461.98889)"
                 id="g6196">
                <g
                   transform="translate(-2.077,-214.8963)"
                   id="g6198">
                  <path
                     d="M 0,0 0,-0.267 C 0.035,-0.374 0.107,-0.41 0.196,-0.428 0.428,-0.535 0.57,-0.463 0.659,-0.267 L 3.744,7.49 6.295,-0.232 C 6.366,-0.338 6.419,-0.41 6.491,-0.428 l 0.25,0 c 0.106,0.018 0.178,0.036 0.195,0.161 L 6.99,-0.018 4.083,8.631 C 4.03,8.809 3.976,8.863 3.798,8.863 3.584,8.863 3.495,8.809 3.424,8.649 L 0,0 z"
                     id="path6200"
                     style="fill:#575656;fill-opacity:1;fill-rule:nonzero;stroke:none" />
                </g>
              </g>
              <g
                 transform="matrix(0.2988129,0,0,-0.3156738,754.63019,461.98889)"
                 id="g6202">
                <g
                   transform="translate(-6.767,-218.8013)"
                   id="g6204">
                  <path
                     d="M 0,0 C 0.356,0 0.517,0.178 0.517,0.535 0.517,0.838 0.356,1.016 0,1.016 -0.339,1.016 -0.535,0.838 -0.535,0.535 -0.535,0.178 -0.339,0 0,0"
                     id="path6206"
                     style="fill:#575656;fill-opacity:1;fill-rule:nonzero;stroke:none" />
                </g>
              </g>
              <g
                 transform="matrix(0.2988129,0,0,-0.3156738,754.63019,461.98889)"
                 id="g6208">
                <g
                   transform="translate(-6.5,-215.0033)"
                   id="g6210">
                  <path
                     d="m 0,0 0,3.959 c 0,1.48 0.268,2.514 0.892,3.156 l 1.07,1.052 c 0.107,0.054 0.142,0.143 0.142,0.25 0,0.107 -0.035,0.161 -0.142,0.232 L 1.748,8.756 C 1.659,8.756 1.569,8.738 1.462,8.649 L 0.428,7.597 C -0.338,6.848 -0.731,5.617 -0.731,3.941 l 0,-3.941 c 0,-0.267 0.125,-0.392 0.357,-0.392 C -0.16,-0.392 0,-0.267 0,0"
                     id="path6212"
                     style="fill:#575656;fill-opacity:1;fill-rule:nonzero;stroke:none" />
                </g>
              </g>
              <g
                 transform="matrix(0.2988129,0,0,-0.3156738,754.63019,461.98889)"
                 id="g6214">
                <g
                   transform="translate(-7.891,-236.9733)"
                   id="g6216">
                  <path
                     d="m 0,0 c -0.374,-0.392 -0.82,-0.57 -1.355,-0.57 l -4.173,0 0,10.414 c 0,0.802 -0.553,1.337 -1.337,1.337 -0.803,0 -1.338,-0.535 -1.338,-1.337 l 0,-17.619 c 0,-0.766 0.553,-1.319 1.338,-1.319 0.784,0 1.337,0.553 1.337,1.319 l 0,4.548 4.191,0 c 1.266,0 2.354,0.464 3.227,1.355 0.892,0.909 1.338,1.997 1.338,3.245 l 0,8.471 c 0,0.802 -0.535,1.337 -1.338,1.337 -0.802,0 -1.337,-0.535 -1.337,-1.337 l 0,-8.471 C 0.553,0.821 0.375,0.393 0,0"
                     id="path6218"
                     style="fill:#575656;fill-opacity:1;fill-rule:nonzero;stroke:none" />
                </g>
              </g>
              <g
                 transform="matrix(0.2988129,0,0,-0.3156738,754.63019,461.98889)"
                 id="g6220">
                <g
                   transform="translate(-15.452,-214.6643)"
                   id="g6222">
                  <path
                     d="m 0,0 c -0.571,0 -1.016,0.196 -1.391,0.588 -0.392,0.375 -0.588,0.856 -0.588,1.391 l 0,6.063 c 0,0.268 -0.107,0.375 -0.357,0.375 -0.232,0 -0.357,-0.107 -0.357,-0.375 l 0,-6.063 c 0,-0.731 0.268,-1.337 0.785,-1.908 0.535,-0.499 1.159,-0.802 1.873,-0.802 l 1.658,0 c 0.749,0 1.373,0.303 1.89,0.802 0.553,0.571 0.785,1.177 0.785,1.908 l 0,6.063 C 4.298,8.31 4.191,8.417 3.959,8.417 3.709,8.417 3.62,8.31 3.62,8.042 l 0,-6.063 C 3.62,1.444 3.424,0.963 3.014,0.588 2.639,0.196 2.176,0 1.641,0 L 0,0 z"
                     id="path6224"
                     style="fill:#575656;fill-opacity:1;fill-rule:nonzero;stroke:none" />
                </g>
              </g>
              <g
                 transform="matrix(0.2988129,0,0,-0.3156738,754.63019,461.98889)"
                 id="g6226">
                <g
                   transform="translate(-22.0499,-208.9043)"
                   id="g6228">
                  <path
                     d="m 0,0 c 0,0.749 -0.249,1.391 -0.785,1.926 -0.517,0.517 -1.159,0.749 -1.908,0.749 l -1.658,0 c -0.731,0 -1.355,-0.232 -1.89,-0.749 C -6.758,1.391 -7.044,0.749 -7.044,0 l 0,-6.063 c 0,-0.25 0.125,-0.357 0.393,-0.357 0.195,0 0.321,0.107 0.321,0.357 l 0,6.063 c 0,0.553 0.213,1.016 0.57,1.409 0.392,0.41 0.874,0.606 1.409,0.606 l 1.658,0 c 0.518,0 0.999,-0.196 1.409,-0.606 C -0.927,1.016 -0.713,0.553 -0.713,0 l 0,-6.063 c 0,-0.25 0.089,-0.357 0.339,-0.357 0.249,0 0.374,0.107 0.374,0.357 L 0,0 z"
                     id="path6230"
                     style="fill:#575656;fill-opacity:1;fill-rule:nonzero;stroke:none" />
                </g>
              </g>
              <g
                 transform="matrix(0.2988129,0,0,-0.3156738,754.63019,461.98889)"
                 id="g6232">
                <g
                   transform="translate(-30.2173,-230.3753)"
                   id="g6234">
                  <path
                     d="m 0,0 c 0,0.536 0.179,0.981 0.553,1.356 0.392,0.392 0.821,0.57 1.338,0.57 l 5.545,0 c 0.821,0 1.356,0.535 1.356,1.32 0,0.802 -0.535,1.337 -1.356,1.337 l -5.545,0 C 0.624,4.583 -0.463,4.138 -1.355,3.246 -2.229,2.336 -2.675,1.231 -2.675,0 l 0,-5.225 c 0,-1.248 0.446,-2.336 1.32,-3.245 0.909,-0.891 1.979,-1.355 3.246,-1.355 l 5.545,0 c 0.821,0 1.356,0.552 1.356,1.355 0,0.785 -0.535,1.302 -1.356,1.302 l -5.545,0 c -0.517,0 -0.946,0.196 -1.338,0.57 C 0.179,-6.205 0,-5.777 0,-5.225 L 0,0 z"
                     id="path6236"
                     style="fill:#575656;fill-opacity:1;fill-rule:nonzero;stroke:none" />
                </g>
              </g>
              <g
                 transform="matrix(0.2988129,0,0,-0.3156738,754.63019,461.98889)"
                 id="g6238">
                <g
                   transform="translate(-46.73,-235.9383)"
                   id="g6240">
                  <path
                     d="m 0,0 c 0,-1.195 0.428,-2.212 1.23,-3.032 0.821,-0.803 1.837,-1.23 3.032,-1.23 l 2.906,0 c 0.821,0 1.356,0.552 1.356,1.337 0,0.803 -0.535,1.338 -1.356,1.338 l -2.888,0 c -0.446,0 -0.802,0.142 -1.124,0.463 -0.339,0.321 -0.481,0.696 -0.481,1.141 0,0.429 0.142,0.785 0.481,1.106 0.322,0.321 0.678,0.481 1.124,0.481 1.177,0 2.176,0.411 3.013,1.249 0.821,0.838 1.231,1.854 1.231,3.014 0,1.159 -0.41,2.175 -1.248,3.013 -0.82,0.839 -1.837,1.249 -3.014,1.249 l -2.943,0 C 0.535,10.129 0,9.594 0,8.809 0,7.989 0.535,7.454 1.319,7.454 l 2.943,0 C 4.708,7.454 5.064,7.311 5.385,6.99 5.707,6.687 5.849,6.312 5.849,5.867 5.849,5.403 5.707,5.046 5.385,4.743 5.064,4.422 4.708,4.28 4.262,4.28 3.067,4.28 2.051,3.851 1.23,3.014 0.428,2.175 0,1.177 0,0"
                     id="path6242"
                     style="fill:#575656;fill-opacity:1;fill-rule:nonzero;stroke:none" />
                </g>
              </g>
              <g
                 transform="matrix(0.2988129,0,0,-0.3156738,754.63019,461.98889)"
                 id="g6244">
                <g
                   transform="translate(-54.9864,-235.6003)"
                   id="g6246">
                  <path
                     d="m 0,0 c 0,-0.552 -0.179,-0.98 -0.571,-1.373 -0.374,-0.392 -0.803,-0.57 -1.337,-0.57 l -4.191,0 0,10.414 c 0,0.802 -0.535,1.337 -1.338,1.337 -0.802,0 -1.337,-0.535 -1.337,-1.337 l 0,-17.619 c 0,-0.784 0.535,-1.301 1.337,-1.301 0.803,0 1.338,0.517 1.338,1.301 l 0,4.548 4.208,0 c 1.267,0 2.354,0.464 3.228,1.355 0.874,0.909 1.32,1.997 1.32,3.245 l 0,8.471 C 2.657,9.273 2.122,9.808 1.319,9.808 0.535,9.808 0,9.273 0,8.471 L 0,0 z"
                     id="path6248"
                     style="fill:#575656;fill-opacity:1;fill-rule:nonzero;stroke:none" />
                </g>
              </g>
              <g
                 transform="matrix(0.2988129,0,0,-0.3156738,754.63019,461.98889)"
                 id="g6250">
                <g
                   transform="translate(-80.7012,-235.6003)"
                   id="g6252">
                  <path
                     d="M 0,0 C 0,-1.248 0.446,-2.336 1.32,-3.245 2.211,-4.136 3.299,-4.6 4.565,-4.6 l 5.546,0 c 0.821,0 1.355,0.552 1.355,1.337 0,0.803 -0.534,1.32 -1.355,1.32 l -5.546,0 c -0.535,0 -0.945,0.178 -1.338,0.57 C 2.835,-0.98 2.657,-0.552 2.657,0 l 0,5.208 c 0,0.553 0.178,0.998 0.57,1.373 0.393,0.392 0.803,0.57 1.338,0.57 l 5.546,0 c 0.821,0 1.355,0.535 1.355,1.32 0,0.802 -0.534,1.337 -1.355,1.337 l -5.546,0 C 3.299,9.808 2.211,9.363 1.32,8.471 0.446,7.561 0,6.456 0,5.208 L 0,0 z"
                     id="path6254"
                     style="fill:#575656;fill-opacity:1;fill-rule:nonzero;stroke:none" />
                </g>
              </g>
              <g
                 transform="matrix(0.2988129,0,0,-0.3156738,754.63019,461.98889)"
                 id="g6256">
                <g
                   transform="translate(-85.9621,-232.9423)"
                   id="g6258">
                  <path
                     d="m 0,0 c 0,1.979 -0.713,3.691 -2.086,5.1 -1.409,1.391 -3.139,2.104 -5.118,2.104 -1.961,0 -3.673,-0.696 -5.083,-2.086 -1.408,-1.41 -2.122,-3.139 -2.122,-5.118 0,-1.98 0.714,-3.674 2.122,-5.083 1.41,-1.426 3.122,-2.14 5.083,-2.14 1.997,0 3.727,0.714 5.118,2.14 C -0.713,-3.674 0,-1.962 0,0 m -3.994,-3.21 c -0.892,-0.91 -1.944,-1.338 -3.21,-1.338 -1.266,0 -2.318,0.428 -3.21,1.338 -0.892,0.891 -1.337,1.943 -1.337,3.21 0,1.266 0.445,2.3 1.337,3.209 0.892,0.892 1.961,1.32 3.21,1.32 1.248,0 2.318,-0.428 3.21,-1.32 C -3.102,2.3 -2.675,1.266 -2.675,0 c 0,-1.267 -0.427,-2.319 -1.319,-3.21"
                     id="path6260"
                     style="fill:#575656;fill-opacity:1;fill-rule:nonzero;stroke:none" />
                </g>
              </g>
              <g
                 transform="matrix(0.2988129,0,0,-0.3156738,754.63019,461.98889)"
                 id="g6262">
                <g
                   transform="translate(-110.1964,-237.5433)"
                   id="g6264">
                  <path
                     d="m 0,0 -4.19,0 0,10.414 c 0,0.802 -0.536,1.337 -1.32,1.337 -0.802,0 -1.338,-0.535 -1.338,-1.337 l 0,-17.619 c 0,-0.784 0.536,-1.301 1.338,-1.301 0.784,0 1.32,0.517 1.32,1.301 l 0,4.548 4.226,0 c 1.248,0 2.336,0.464 3.228,1.355 0.873,0.909 1.319,1.997 1.319,3.245 l 0,8.471 c 0,0.802 -0.535,1.337 -1.337,1.337 -0.803,0 -1.338,-0.535 -1.338,-1.337 l 0,-8.471 C 1.908,1.391 1.73,0.963 1.355,0.57 0.981,0.178 0.553,0 0,0"
                     id="path6266"
                     style="fill:#575656;fill-opacity:1;fill-rule:nonzero;stroke:none" />
                </g>
              </g>
              <g
                 transform="matrix(0.2988129,0,0,-0.3156738,754.63019,461.98889)"
                 id="g6268">
                <g
                   transform="translate(121.758,-352.7328)"
                   id="g6270">
                  <path
                     d="M 0,0 -0.115,0.047 -0.213,0.098 -0.309,0.16 -0.418,0.225 c -0.297,0.172 -0.565,0.387 -0.764,0.604 -0.219,0.216 -0.391,0.452 -0.508,0.687 -0.123,0.235 -0.175,0.464 -0.191,0.683 -0.006,0.215 0.064,0.424 0.18,0.605 L 1.316,7.175 C 1.459,7.371 1.631,7.522 1.863,7.634 2.09,7.747 2.336,7.826 2.615,7.844 2.9,7.871 3.193,7.857 3.513,7.801 3.822,7.747 4.131,7.658 4.469,7.516 L 4.588,7.459 4.709,7.395 4.818,7.328 4.941,7.252 C 5.293,7.041 5.58,6.795 5.804,6.539 6.039,6.275 6.219,5.992 6.334,5.719 6.441,5.443 6.476,5.161 6.457,4.916 6.429,4.654 6.326,4.412 6.164,4.213 L 2.73,0.111 C 2.584,-0.035 2.433,-0.148 2.226,-0.236 2.027,-0.305 1.808,-0.35 1.562,-0.357 1.334,-0.361 1.068,-0.343 0.802,-0.274 0.541,-0.219 0.265,-0.125 0,0"
                     id="path6272"
                     style="fill:#009ee3;fill-opacity:1;fill-rule:nonzero;stroke:none" />
                </g>
              </g>
              <g
                 transform="matrix(0.2988129,0,0,-0.3156738,754.63019,461.98889)"
                 id="g6274">
                <g
                   transform="translate(137.975,-360.4301)"
                   id="g6276">
                  <path
                     d="M 0,0 C -0.284,0.139 -0.565,0.306 -0.819,0.492 -1.094,0.682 -1.338,0.894 -1.551,1.116 -1.774,1.348 -1.965,1.6 -2.114,1.834 -2.266,2.086 -2.383,2.328 -2.436,2.582 l -1.686,6.582 c -0.091,0.328 -0.091,0.602 -0.025,0.853 0.053,0.247 0.176,0.438 0.367,0.58 0.17,0.149 0.426,0.239 0.707,0.268 0.293,0.019 0.625,-0.029 0.996,-0.138 l 0.121,-0.036 0.104,-0.048 0.111,-0.04 0.119,-0.048 C -1.299,10.404 -0.971,10.206 -0.674,9.986 -0.373,9.752 -0.079,9.502 0.156,9.227 0.402,8.945 0.621,8.652 0.771,8.355 0.941,8.063 1.052,7.766 1.119,7.465 L 2.382,0.925 C 2.453,0.658 2.433,0.414 2.357,0.228 2.273,0.043 2.14,-0.107 1.951,-0.195 1.783,-0.299 1.55,-0.341 1.289,-0.333 c -0.266,0 -0.559,0.06 -0.895,0.171 L 0.298,-0.128 0.203,-0.084 0.107,-0.045 0,0 z"
                     id="path6278"
                     style="fill:#009ee3;fill-opacity:1;fill-rule:nonzero;stroke:none" />
                </g>
              </g>
              <g
                 transform="matrix(0.2988129,0,0,-0.3156738,754.63019,461.98889)"
                 id="g6280">
                <g
                   transform="translate(107.768,-342.0024)"
                   id="g6282">
                  <path
                     d="m 0,0 c -0.135,0.068 -0.262,0.137 -0.391,0.197 -0.115,0.069 -0.24,0.147 -0.363,0.221 -0.121,0.077 -0.229,0.152 -0.329,0.241 -0.123,0.075 -0.212,0.164 -0.296,0.259 -0.252,0.24 -0.432,0.477 -0.541,0.699 -0.118,0.227 -0.143,0.444 -0.118,0.631 0.036,0.194 0.133,0.367 0.309,0.502 0.166,0.131 0.42,0.225 0.719,0.281 L 6.496,4.307 C 6.718,4.34 6.966,4.361 7.218,4.361 7.474,4.35 7.728,4.322 7.986,4.285 8.255,4.244 8.531,4.184 8.783,4.093 9.064,4.02 9.312,3.922 9.572,3.806 9.732,3.744 9.865,3.673 10.009,3.593 10.162,3.518 10.296,3.43 10.437,3.346 10.56,3.256 10.685,3.166 10.808,3.072 10.923,2.961 11.025,2.87 11.123,2.766 11.39,2.489 11.552,2.213 11.634,1.963 11.732,1.712 11.72,1.467 11.63,1.271 11.56,1.053 11.394,0.885 11.156,0.734 10.923,0.6 10.615,0.497 10.25,0.452 L 2.628,-0.499 C 2.427,-0.523 2.222,-0.535 2,-0.521 1.794,-0.515 1.57,-0.484 1.339,-0.446 1.119,-0.397 0.892,-0.328 0.66,-0.254 0.437,-0.178 0.203,-0.092 0,0"
                     id="path6284"
                     style="fill:#009ee3;fill-opacity:1;fill-rule:nonzero;stroke:none" />
                </g>
              </g>
              <g
                 transform="matrix(0.2988129,0,0,-0.3156738,754.63019,461.98889)"
                 id="g6286">
                <g
                   transform="translate(154.807,-364.0258)"
                   id="g6288">
                  <path
                     d="M 0,0 C -0.25,0.114 -0.506,0.259 -0.756,0.411 -1.012,0.574 -1.27,0.725 -1.514,0.909 -1.774,1.092 -2,1.283 -2.229,1.484 -2.448,1.685 -2.661,1.897 -2.862,2.111 l -6.9,7.918 c -0.324,0.391 -0.576,0.752 -0.744,1.08 -0.174,0.34 -0.268,0.647 -0.26,0.903 -0.033,0.261 0.051,0.475 0.219,0.618 0.168,0.157 0.414,0.245 0.736,0.261 0.123,0.002 0.252,-0.008 0.391,-0.03 0.121,-0.02 0.269,-0.045 0.41,-0.081 0.137,-0.042 0.295,-0.078 0.447,-0.128 0.143,-0.064 0.311,-0.123 0.465,-0.191 0.279,-0.127 0.555,-0.277 0.851,-0.449 0.278,-0.171 0.561,-0.358 0.842,-0.571 0.283,-0.204 0.543,-0.416 0.795,-0.65 0.266,-0.232 0.488,-0.489 0.701,-0.74 L 1.968,1.85 C 2.263,1.5 2.451,1.172 2.587,0.883 2.714,0.602 2.759,0.334 2.714,0.131 2.681,-0.082 2.564,-0.242 2.38,-0.336 2.205,-0.439 1.935,-0.486 1.603,-0.461 1.488,-0.453 1.365,-0.443 1.226,-0.407 1.103,-0.379 0.98,-0.354 0.837,-0.314 0.716,-0.277 0.576,-0.229 0.433,-0.172 0.289,-0.119 0.146,-0.072 0,0"
                     id="path6290"
                     style="fill:#009ee3;fill-opacity:1;fill-rule:nonzero;stroke:none" />
                </g>
              </g>
              <g
                 transform="matrix(0.2988129,0,0,-0.3156738,754.63019,461.98889)"
                 id="g6292">
                <g
                   transform="translate(98.326,-329.2895)"
                   id="g6294">
                  <path
                     d="m 0,0 c -0.371,0.158 -0.742,0.344 -1.076,0.541 -0.344,0.201 -0.66,0.412 -0.953,0.631 -0.281,0.226 -0.555,0.445 -0.774,0.68 -0.22,0.218 -0.39,0.452 -0.523,0.678 -0.152,0.281 -0.213,0.529 -0.18,0.726 0.049,0.215 0.172,0.372 0.393,0.48 0.205,0.104 0.498,0.16 0.863,0.16 0.377,-0.009 0.817,-0.078 1.311,-0.206 L 10.703,0.597 c 0.127,-0.041 0.262,-0.081 0.385,-0.122 0.121,-0.043 0.242,-0.079 0.371,-0.112 0.125,-0.041 0.246,-0.095 0.369,-0.148 0.121,-0.043 0.227,-0.092 0.358,-0.139 0.41,-0.178 0.808,-0.391 1.179,-0.604 0.383,-0.22 0.727,-0.452 1.02,-0.691 0.316,-0.236 0.576,-0.481 0.791,-0.728 0.213,-0.241 0.359,-0.481 0.451,-0.705 0.125,-0.289 0.115,-0.541 0.006,-0.735 -0.08,-0.186 -0.293,-0.334 -0.568,-0.418 -0.288,-0.089 -0.635,-0.117 -1.063,-0.092 -0.41,0.029 -0.898,0.106 -1.426,0.256 L 1.287,-0.467 C 1.178,-0.444 1.068,-0.41 0.965,-0.371 0.856,-0.342 0.754,-0.309 0.637,-0.267 0.52,-0.234 0.418,-0.184 0.307,-0.144 0.203,-0.102 0.102,-0.047 0,0"
                     id="path6296"
                     style="fill:#009ee3;fill-opacity:1;fill-rule:nonzero;stroke:none" />
                </g>
              </g>
              <g
                 transform="matrix(0.2988129,0,0,-0.3156738,754.63019,461.98889)"
                 id="g6298">
                <g
                   transform="translate(169.234,-361.561)"
                   id="g6300">
                  <path
                     d="M 0,0 C -0.154,0.072 -0.306,0.139 -0.459,0.215 -0.617,0.282 -0.754,0.359 -0.898,0.44 -1.049,0.516 -1.201,0.607 -1.341,0.69 -1.5,0.763 -1.629,0.853 -1.783,0.941 L -14.42,8.793 c -0.576,0.355 -1.07,0.721 -1.498,1.08 -0.406,0.374 -0.746,0.729 -0.996,1.068 -0.242,0.325 -0.375,0.641 -0.406,0.904 -0.027,0.272 0.055,0.493 0.254,0.647 0.172,0.115 0.396,0.2 0.664,0.219 0.27,0.022 0.596,0.022 0.947,-0.031 0.364,-0.057 0.76,-0.143 1.194,-0.264 0.41,-0.133 0.849,-0.293 1.308,-0.497 0.145,-0.062 0.305,-0.131 0.461,-0.204 0.147,-0.083 0.317,-0.165 0.457,-0.246 0.172,-0.078 0.315,-0.162 0.49,-0.248 0.143,-0.091 0.299,-0.187 0.455,-0.28 L 2.133,2.67 C 2.725,2.303 3.241,1.928 3.639,1.57 4.041,1.209 4.34,0.858 4.539,0.531 4.735,0.228 4.813,-0.047 4.784,-0.285 4.737,-0.521 4.588,-0.698 4.309,-0.81 4.094,-0.892 3.828,-0.932 3.526,-0.934 3.217,-0.926 2.868,-0.892 2.491,-0.814 2.102,-0.738 1.694,-0.629 1.282,-0.49 0.868,-0.362 0.426,-0.191 0,0"
                     id="path6302"
                     style="fill:#009ee3;fill-opacity:1;fill-rule:nonzero;stroke:none" />
                </g>
              </g>
              <g
                 transform="matrix(0.2988129,0,0,-0.3156738,754.63019,461.98889)"
                 id="g6304">
                <g
                   transform="translate(110.223,-324.9008)"
                   id="g6306">
                  <path
                     d="M 0,0 C -0.143,0.068 -0.282,0.13 -0.438,0.198 -0.582,0.269 -0.727,0.342 -0.87,0.42 -1.03,0.5 -1.18,0.576 -1.332,0.666 -1.481,0.762 -1.631,0.857 -1.795,0.94 l -13.627,8.476 c -0.633,0.397 -1.213,0.814 -1.742,1.246 -0.536,0.44 -1.014,0.893 -1.418,1.331 -0.391,0.439 -0.729,0.886 -0.948,1.276 -0.224,0.397 -0.349,0.762 -0.345,1.057 0.021,0.219 0.091,0.389 0.228,0.512 0.139,0.117 0.352,0.187 0.596,0.207 0.262,0.027 0.564,-0.008 0.912,-0.09 0.359,-0.074 0.75,-0.205 1.168,-0.385 0.144,-0.053 0.303,-0.121 0.453,-0.198 0.148,-0.067 0.301,-0.145 0.457,-0.226 0.16,-0.081 0.316,-0.171 0.481,-0.259 0.158,-0.096 0.314,-0.186 0.49,-0.297 L -0.77,4.656 C -0.118,4.257 0.464,3.818 1.002,3.38 1.517,2.943 1.966,2.488 2.322,2.065 2.689,1.639 2.951,1.227 3.107,0.872 3.255,0.508 3.302,0.193 3.216,-0.055 3.146,-0.234 3.015,-0.371 2.83,-0.446 2.646,-0.535 2.414,-0.563 2.127,-0.563 1.855,-0.555 1.517,-0.502 1.15,-0.404 0.795,-0.309 0.404,-0.164 0,0"
                     id="path6308"
                     style="fill:#009ee3;fill-opacity:1;fill-rule:nonzero;stroke:none" />
                </g>
              </g>
              <g
                 transform="matrix(0.2988129,0,0,-0.3156738,754.63019,461.98889)"
                 id="g6310">
                <g
                   transform="translate(158.543,-346.1371)"
                   id="g6312">
                  <path
                     d="m 0,0 c -0.506,0.211 -0.963,0.451 -1.391,0.685 -0.41,0.247 -0.779,0.503 -1.078,0.76 -0.308,0.262 -0.547,0.524 -0.703,0.772 -0.18,0.252 -0.264,0.502 -0.269,0.735 0.005,0.305 0.166,0.545 0.431,0.736 0.283,0.193 0.688,0.324 1.188,0.398 0.507,0.069 1.103,0.072 1.775,0.014 C 0.639,4.037 1.396,3.895 2.187,3.684 L 20.76,-1.248 c 0.195,-0.053 0.381,-0.109 0.582,-0.164 0.195,-0.057 0.377,-0.117 0.568,-0.186 0.186,-0.063 0.369,-0.132 0.545,-0.191 0.174,-0.068 0.361,-0.135 0.523,-0.207 0.582,-0.236 1.131,-0.512 1.594,-0.791 0.473,-0.271 0.863,-0.553 1.188,-0.84 0.304,-0.282 0.523,-0.57 0.658,-0.83 0.129,-0.277 0.172,-0.535 0.064,-0.768 -0.099,-0.297 -0.382,-0.535 -0.8,-0.693 -0.405,-0.172 -0.961,-0.268 -1.598,-0.301 -0.637,-0.033 -1.352,0.006 -2.125,0.096 -0.772,0.104 -1.6,0.272 -2.445,0.498 L 1.908,-0.68 C 1.744,-0.627 1.574,-0.586 1.4,-0.529 1.236,-0.475 1.086,-0.418 0.92,-0.363 0.764,-0.311 0.605,-0.246 0.441,-0.192 0.301,-0.122 0.152,-0.068 0,0"
                     id="path6314"
                     style="fill:#009ee3;fill-opacity:1;fill-rule:nonzero;stroke:none" />
                </g>
              </g>
              <g
                 transform="matrix(0.2988129,0,0,-0.3156738,754.63019,461.98889)"
                 id="g6316">
                <g
                   transform="translate(116.826,-320.0453)"
                   id="g6318">
                  <path
                     d="m 0,0 c -0.318,0.137 -0.654,0.303 -0.996,0.498 -0.34,0.213 -0.697,0.453 -1.047,0.722 -0.363,0.28 -0.705,0.582 -1.068,0.905 -0.352,0.337 -0.694,0.688 -1.031,1.07 l -12.336,14.18 c -0.61,0.693 -1.131,1.383 -1.563,2.072 -0.426,0.676 -0.754,1.317 -0.973,1.919 -0.228,0.603 -0.343,1.13 -0.322,1.577 0.014,0.454 0.149,0.789 0.449,1.004 0.104,0.061 0.221,0.121 0.36,0.164 0.129,0.028 0.279,0.039 0.437,0.039 0.153,-0.011 0.33,-0.027 0.522,-0.078 0.179,-0.031 0.363,-0.099 0.568,-0.174 0.35,-0.146 0.74,-0.33 1.129,-0.577 0.408,-0.227 0.822,-0.52 1.246,-0.857 0.418,-0.329 0.838,-0.714 1.262,-1.112 0.41,-0.403 0.814,-0.845 1.205,-1.323 L 0.471,4.986 C 0.988,4.36 1.418,3.744 1.75,3.16 2.065,2.577 2.289,2.042 2.393,1.57 2.516,1.11 2.516,0.705 2.42,0.39 2.324,0.082 2.123,-0.145 1.799,-0.248 1.688,-0.283 1.557,-0.303 1.418,-0.315 c -0.131,-0.009 -0.273,0 -0.43,0.02 C 0.838,-0.27 0.68,-0.234 0.52,-0.187 0.358,-0.139 0.176,-0.084 0,0"
                     id="path6320"
                     style="fill:#009ee3;fill-opacity:1;fill-rule:nonzero;stroke:none" />
                </g>
              </g>
              <g
                 transform="matrix(0.2988129,0,0,-0.3156738,754.63019,461.98889)"
                 id="g6322">
                <g
                   transform="translate(153.6479,-335.7953)"
                   id="g6324">
                  <path
                     d="m 0,0 c -0.222,0.081 -0.423,0.178 -0.615,0.283 -0.191,0.108 -0.379,0.205 -0.531,0.326 -0.17,0.118 -0.32,0.241 -0.445,0.364 -0.143,0.132 -0.272,0.266 -0.37,0.412 -0.267,0.369 -0.382,0.745 -0.377,1.111 0.022,0.376 0.167,0.725 0.43,1.047 0.272,0.328 0.668,0.623 1.184,0.873 0.513,0.252 1.142,0.444 1.857,0.568 l 18.315,3.092 c 0.588,0.112 1.183,0.171 1.769,0.206 0.598,0.007 1.174,0.007 1.742,-0.04 0.575,-0.041 1.123,-0.131 1.639,-0.24 C 25.133,7.891 25.62,7.74 26.069,7.57 26.348,7.465 26.598,7.351 26.834,7.219 27.065,7.094 27.291,6.951 27.477,6.816 27.684,6.67 27.846,6.512 28.008,6.347 28.141,6.197 28.264,6.021 28.356,5.848 28.61,5.375 28.645,4.908 28.487,4.463 28.336,4.01 28.002,3.583 27.512,3.207 27.03,2.831 26.416,2.492 25.674,2.227 24.944,1.968 24.094,1.76 23.182,1.65 L 5.047,-0.631 C 4.596,-0.693 4.141,-0.715 3.694,-0.708 3.241,-0.7 2.807,-0.68 2.366,-0.618 1.928,-0.576 1.516,-0.482 1.125,-0.385 0.729,-0.277 0.342,-0.152 0,0"
                     id="path6326"
                     style="fill:#009ee3;fill-opacity:1;fill-rule:nonzero;stroke:none" />
                </g>
              </g>
              <g
                 transform="matrix(0.2988129,0,0,-0.3156738,754.63019,461.98889)"
                 id="g6328">
                <g
                   transform="translate(128.6,-320.0102)"
                   id="g6330">
                  <path
                     d="M 0,0 C -0.424,0.18 -0.877,0.443 -1.288,0.773 -1.713,1.117 -2.12,1.525 -2.479,1.988 -2.844,2.453 -3.174,2.961 -3.463,3.5 -3.735,4.065 -3.971,4.64 -4.112,5.25 l -4.357,17.04 c -0.235,0.884 -0.34,1.716 -0.328,2.476 -0.006,0.777 0.123,1.453 0.334,2.029 0.24,0.57 0.572,1.018 0.996,1.311 0.431,0.292 0.949,0.427 1.541,0.357 l 0.185,-0.022 0.194,-0.043 0.177,-0.047 0.194,-0.058 c 0.541,-0.201 1.082,-0.543 1.617,-1.004 0.514,-0.453 1.029,-1.021 1.477,-1.673 0.449,-0.644 0.847,-1.356 1.177,-2.132 0.33,-0.753 0.582,-1.556 0.746,-2.373 L 3.263,3.772 C 3.394,3.09 3.408,2.481 3.334,1.94 3.263,1.418 3.085,0.959 2.843,0.615 2.607,0.268 2.293,0.014 1.912,-0.125 1.531,-0.262 1.084,-0.295 0.597,-0.191 L 0.439,-0.158 0.294,-0.111 0.158,-0.057 0,0 z"
                     id="path6332"
                     style="fill:#009ee3;fill-opacity:1;fill-rule:nonzero;stroke:none" />
                </g>
              </g>
              <g
                 transform="matrix(0.2988129,0,0,-0.3156738,754.63019,461.98889)"
                 id="g6334">
                <g
                   transform="translate(142.594,-325.8881)"
                   id="g6336">
                  <path
                     d="m 0,0 -0.168,0.069 -0.18,0.081 -0.166,0.097 -0.172,0.104 c -0.473,0.3 -0.859,0.672 -1.158,1.103 -0.289,0.424 -0.494,0.904 -0.596,1.4 -0.113,0.507 -0.117,1.034 -0.006,1.561 0.108,0.523 0.329,1.043 0.662,1.537 l 8.868,12.795 c 0.412,0.598 0.918,1.126 1.468,1.558 0.555,0.432 1.166,0.788 1.788,1.03 0.638,0.245 1.304,0.392 1.964,0.416 0.649,0.025 1.293,-0.061 1.895,-0.274 l 0.225,-0.103 0.23,-0.109 0.227,-0.104 0.214,-0.144 c 0.602,-0.391 1.077,-0.92 1.385,-1.53 0.309,-0.603 0.492,-1.273 0.512,-1.989 0.027,-0.713 -0.09,-1.438 -0.34,-2.146 C 16.39,14.634 15.996,13.949 15.463,13.31 L 5.447,1.364 C 5.09,0.952 4.691,0.608 4.259,0.363 3.828,0.089 3.367,-0.089 2.873,-0.205 2.388,-0.322 1.902,-0.364 1.414,-0.329 0.941,-0.302 0.453,-0.192 0,0"
                     id="path6338"
                     style="fill:#009ee3;fill-opacity:1;fill-rule:nonzero;stroke:none" />
                </g>
              </g>
              <g
                 id="g6340">
                <g
                   clip-path="url(#clipPath5840)"
                   id="g6342">
                  <g
                     transform="matrix(0.2988129,0,0,-0.3156738,754.63019,461.98889)"
                     id="g6344">
                    <path
                       d="m 127.396,-362.299 3.609,0 0,6.627 -3.609,0 0,-6.627 z"
                       id="path6346"
                       style="fill:#81d0f5;fill-opacity:1;fill-rule:nonzero;stroke:none" />
                  </g>
                </g>
              </g>
              <g
                 transform="matrix(0.2988129,0,0,-0.3156738,754.63019,461.98889)"
                 id="g6348">
                <g
                   transform="translate(112.622,-345.829)"
                   id="g6350">
                  <path
                     d="m 0,0 c -0.159,0 -0.32,-0.019 -0.463,-0.056 -0.189,-0.036 -0.351,-0.09 -0.504,-0.162 l -3.672,-2.034 c -0.162,-0.081 -0.27,-0.189 -0.342,-0.306 -0.063,-0.117 -0.09,-0.252 -0.072,-0.396 0.009,-0.135 0.072,-0.279 0.153,-0.423 0.099,-0.144 0.234,-0.27 0.405,-0.396 l 0.09,-0.072 0.099,-0.054 0.099,-0.063 0.108,-0.054 c 0.153,-0.072 0.324,-0.135 0.504,-0.171 0.171,-0.054 0.342,-0.072 0.522,-0.09 0.043,-0.003 0.085,-0.004 0.128,-0.004 0.127,0 0.252,0.011 0.367,0.031 0.162,0.027 0.315,0.072 0.441,0.135 l 3.834,1.881 c 0.171,0.099 0.324,0.198 0.414,0.333 0.099,0.135 0.144,0.288 0.144,0.432 0,0.153 -0.036,0.315 -0.117,0.477 -0.099,0.153 -0.243,0.315 -0.432,0.459 L 1.607,-0.461 1.49,-0.38 1.382,-0.326 1.256,-0.263 C 1.085,-0.182 0.878,-0.119 0.68,-0.065 0.5,-0.038 0.293,-0.002 0.095,-0.002 0.063,-0.001 0.032,0 0,0"
                     id="path6352"
                     style="fill:#81d0f5;fill-opacity:1;fill-rule:nonzero;stroke:none" />
                </g>
              </g>
              <g
                 transform="matrix(0.2988129,0,0,-0.3156738,754.63019,461.98889)"
                 id="g6354">
                <g
                   transform="translate(146.29,-361.7475)"
                   id="g6356">
                  <path
                     d="m 0,0 c -0.102,0 -0.191,-0.016 -0.264,-0.05 -0.135,-0.054 -0.234,-0.153 -0.288,-0.297 -0.045,-0.135 -0.045,-0.315 0,-0.513 0.036,-0.216 0.135,-0.45 0.279,-0.693 l 2.997,-5.292 c 0.108,-0.189 0.234,-0.378 0.378,-0.558 0.153,-0.18 0.315,-0.351 0.468,-0.513 0.189,-0.162 0.36,-0.306 0.558,-0.423 0.18,-0.135 0.369,-0.243 0.549,-0.324 l 0.117,-0.063 0.108,-0.036 0.117,-0.045 0.099,-0.027 c 0.121,-0.031 0.233,-0.044 0.334,-0.044 0.072,0 0.137,0.006 0.197,0.017 0.135,0.036 0.234,0.117 0.297,0.225 0.054,0.108 0.081,0.252 0.045,0.423 -0.027,0.171 -0.108,0.378 -0.225,0.612 l -2.862,5.337 c -0.099,0.216 -0.234,0.423 -0.396,0.63 -0.162,0.207 -0.351,0.405 -0.531,0.576 -0.198,0.18 -0.405,0.351 -0.603,0.495 -0.207,0.144 -0.423,0.279 -0.612,0.369 L 0.645,-0.14 0.51,-0.095 0.393,-0.068 0.285,-0.032 C 0.182,-0.011 0.086,0 0,0"
                     id="path6358"
                     style="fill:#81d0f5;fill-opacity:1;fill-rule:nonzero;stroke:none" />
                </g>
              </g>
              <g
                 transform="matrix(0.2988129,0,0,-0.3156738,754.63019,461.98889)"
                 id="g6360">
                <g
                   transform="translate(91.057,-331.879)"
                   id="g6362">
                  <path
                     d="m 0,0 c -0.235,0 -0.442,-0.018 -0.606,-0.047 -0.207,-0.036 -0.351,-0.108 -0.468,-0.216 -0.081,-0.081 -0.135,-0.198 -0.108,-0.333 0.027,-0.144 0.09,-0.306 0.243,-0.459 l 0.234,-0.225 c 0.09,-0.081 0.189,-0.153 0.288,-0.234 0.117,-0.063 0.225,-0.144 0.351,-0.207 C 0.051,-1.784 0.195,-1.856 0.321,-1.91 0.474,-1.991 0.636,-2.054 0.78,-2.108 0.942,-2.162 1.104,-2.216 1.257,-2.261 1.419,-2.306 1.59,-2.351 1.752,-2.378 1.914,-2.405 2.067,-2.432 2.229,-2.45 l 7.02,-0.648 C 9.406,-3.111 9.553,-3.12 9.69,-3.12 c 0.154,0 0.295,0.011 0.423,0.04 0.234,0.027 0.432,0.099 0.558,0.189 0.135,0.09 0.216,0.216 0.216,0.369 0,0.135 -0.063,0.288 -0.18,0.477 -0.081,0.081 -0.162,0.171 -0.261,0.243 -0.081,0.09 -0.198,0.18 -0.315,0.234 -0.108,0.09 -0.234,0.171 -0.378,0.243 -0.126,0.072 -0.27,0.135 -0.414,0.216 -0.162,0.054 -0.333,0.135 -0.504,0.198 -0.189,0.063 -0.369,0.117 -0.549,0.171 -0.18,0.045 -0.369,0.081 -0.54,0.126 -0.189,0.027 -0.369,0.054 -0.549,0.072 L 0.15,-0.002 C 0.099,-0.001 0.049,0 0,0"
                     id="path6364"
                     style="fill:#81d0f5;fill-opacity:1;fill-rule:nonzero;stroke:none" />
                </g>
              </g>
              <g
                 transform="matrix(0.2988129,0,0,-0.3156738,754.63019,461.98889)"
                 id="g6366">
                <g
                   transform="translate(163.695,-362.9073)"
                   id="g6368">
                  <path
                     d="m 0,0 c -0.041,0 -0.082,-0.002 -0.119,-0.006 -0.207,-0.027 -0.333,-0.126 -0.378,-0.261 -0.045,-0.135 -0.009,-0.315 0.081,-0.522 0.108,-0.225 0.27,-0.459 0.513,-0.747 0.243,-0.261 0.531,-0.549 0.891,-0.846 l 7.677,-6.444 c 0.198,-0.153 0.387,-0.306 0.594,-0.441 0.189,-0.153 0.387,-0.297 0.603,-0.423 0.198,-0.126 0.396,-0.243 0.621,-0.36 0.207,-0.108 0.396,-0.207 0.594,-0.306 0.162,-0.072 0.315,-0.135 0.459,-0.198 0.153,-0.045 0.297,-0.09 0.432,-0.135 0.144,-0.036 0.27,-0.063 0.396,-0.09 0.108,-0.018 0.216,-0.027 0.297,-0.027 0.234,0.009 0.396,0.063 0.45,0.18 0.081,0.108 0.081,0.261 0.018,0.459 -0.09,0.18 -0.216,0.414 -0.441,0.666 -0.198,0.252 -0.486,0.531 -0.828,0.828 L 4.057,-2.058 C 3.859,-1.887 3.643,-1.725 3.436,-1.572 3.22,-1.41 3.004,-1.266 2.788,-1.122 2.563,-0.978 2.338,-0.852 2.131,-0.735 1.906,-0.618 1.69,-0.51 1.492,-0.42 1.321,-0.348 1.168,-0.276 1.015,-0.24 0.853,-0.159 0.709,-0.123 0.574,-0.087 0.439,-0.051 0.313,-0.024 0.178,-0.015 0.12,-0.004 0.059,0 0,0"
                     id="path6370"
                     style="fill:#81d0f5;fill-opacity:1;fill-rule:nonzero;stroke:none" />
                </g>
              </g>
              <g
                 transform="matrix(0.2988129,0,0,-0.3156738,754.63019,461.98889)"
                 id="g6372">
                <g
                   transform="translate(77.058,-310.793)"
                   id="g6374">
                  <path
                     d="m 0,0 c -0.024,0 -0.048,0 -0.071,-0.001 -0.252,-0.009 -0.423,-0.063 -0.504,-0.18 -0.099,-0.099 -0.108,-0.261 -0.018,-0.468 0.09,-0.216 0.27,-0.441 0.513,-0.702 0.252,-0.261 0.558,-0.531 0.918,-0.801 0.369,-0.27 0.774,-0.549 1.215,-0.783 0.432,-0.261 0.891,-0.513 1.35,-0.711 l 10.557,-4.68 0.027,-0.009 0.027,-0.018 0.018,-0.009 0.027,-0.009 c 0.468,-0.198 0.918,-0.351 1.296,-0.477 0.396,-0.099 0.72,-0.153 0.999,-0.171 0.27,0 0.486,0.036 0.612,0.126 0.126,0.09 0.171,0.234 0.117,0.432 -0.054,0.207 -0.207,0.441 -0.45,0.693 -0.216,0.261 -0.531,0.54 -0.891,0.81 -0.369,0.279 -0.792,0.567 -1.242,0.828 -0.459,0.261 -0.945,0.513 -1.449,0.729 L 2.215,-0.613 2.188,-0.604 2.152,-0.595 2.134,-0.586 2.116,-0.577 c -0.477,0.198 -0.9,0.351 -1.26,0.45 C 0.515,-0.038 0.225,0 0,0"
                     id="path6376"
                     style="fill:#81d0f5;fill-opacity:1;fill-rule:nonzero;stroke:none" />
                </g>
              </g>
              <g
                 transform="matrix(0.2988129,0,0,-0.3156738,754.63019,461.98889)"
                 id="g6378">
                <g
                   transform="translate(178.61,-356.8704)"
                   id="g6380">
                  <path
                     d="m 0,0 c -0.054,0 -0.107,-0.001 -0.157,-0.004 -0.333,-0.018 -0.585,-0.09 -0.711,-0.216 -0.153,-0.135 -0.162,-0.324 -0.054,-0.54 0.117,-0.216 0.342,-0.468 0.666,-0.738 0.315,-0.261 0.729,-0.549 1.224,-0.837 0.486,-0.288 1.044,-0.576 1.683,-0.864 l 14.202,-6.309 0.027,-0.018 0.036,-0.027 0.027,-0.009 0.054,-0.018 c 0.63,-0.279 1.269,-0.513 1.899,-0.729 0.63,-0.198 1.224,-0.36 1.773,-0.477 0.531,-0.108 1.035,-0.171 1.44,-0.189 0.034,-0.001 0.067,-0.001 0.1,-0.001 0.364,0 0.636,0.047 0.818,0.154 0.207,0.108 0.27,0.288 0.189,0.495 -0.081,0.198 -0.27,0.459 -0.594,0.72 -0.306,0.288 -0.738,0.585 -1.251,0.882 -0.522,0.306 -1.134,0.621 -1.818,0.918 L 4.811,-1.3 l -0.027,0.027 -0.036,0 -0.045,0.018 -0.036,0.018 C 4.028,-0.967 3.389,-0.724 2.786,-0.544 2.201,-0.355 1.634,-0.211 1.121,-0.112 0.691,-0.043 0.314,0 0,0"
                     id="path6382"
                     style="fill:#81d0f5;fill-opacity:1;fill-rule:nonzero;stroke:none" />
                </g>
              </g>
              <g
                 transform="matrix(0.2988129,0,0,-0.3156738,754.63019,461.98889)"
                 id="g6384">
                <g
                   transform="translate(73.681,-285.0953)"
                   id="g6386">
                  <path
                     d="m 0,0 c -0.043,0 -0.084,-0.004 -0.123,-0.013 -0.117,-0.018 -0.207,-0.045 -0.279,-0.108 -0.063,-0.054 -0.117,-0.126 -0.135,-0.243 -0.054,-0.234 0.036,-0.567 0.243,-0.981 0.189,-0.387 0.495,-0.855 0.882,-1.368 0.396,-0.504 0.855,-1.044 1.395,-1.584 0.522,-0.549 1.116,-1.08 1.746,-1.611 l 13.374,-11.268 c 0.315,-0.252 0.639,-0.504 0.945,-0.738 0.315,-0.225 0.621,-0.441 0.909,-0.63 0.288,-0.18 0.567,-0.351 0.837,-0.486 0.252,-0.144 0.495,-0.27 0.729,-0.351 0.189,-0.09 0.36,-0.126 0.495,-0.171 0.141,-0.039 0.262,-0.065 0.374,-0.065 0.016,0 0.033,0.001 0.049,0.002 0.135,0 0.225,0.009 0.324,0.054 l 0.189,0.162 c 0.108,0.171 0.081,0.441 -0.054,0.783 -0.126,0.342 -0.36,0.738 -0.675,1.179 -0.324,0.45 -0.729,0.945 -1.215,1.458 -0.468,0.504 -1.017,1.035 -1.611,1.539 L 4.557,-2.659 c -0.36,0.315 -0.72,0.594 -1.071,0.846 -0.333,0.27 -0.675,0.495 -0.999,0.711 -0.306,0.207 -0.612,0.396 -0.9,0.54 -0.279,0.153 -0.549,0.27 -0.774,0.369 C 0.606,-0.121 0.444,-0.076 0.282,-0.04 0.18,-0.016 0.086,0 0,0"
                     id="path6388"
                     style="fill:#81d0f5;fill-opacity:1;fill-rule:nonzero;stroke:none" />
                </g>
              </g>
              <g
                 transform="matrix(0.2988129,0,0,-0.3156738,754.63019,461.98889)"
                 id="g6390">
                <g
                   transform="translate(187.09,-340.5212)"
                   id="g6392">
                  <path
                     d="m 0,0 c -0.271,0 -0.534,-0.006 -0.789,-0.018 -0.729,-0.045 -1.395,-0.126 -1.944,-0.252 -0.54,-0.126 -0.936,-0.297 -1.215,-0.495 -0.288,-0.198 -0.414,-0.441 -0.369,-0.693 0.009,-0.117 0.072,-0.234 0.162,-0.36 0.081,-0.126 0.198,-0.243 0.36,-0.369 0.153,-0.117 0.333,-0.234 0.54,-0.342 0.207,-0.117 0.45,-0.234 0.693,-0.333 0.297,-0.117 0.63,-0.234 0.972,-0.342 0.342,-0.108 0.711,-0.207 1.107,-0.297 0.387,-0.09 0.801,-0.171 1.233,-0.234 0.432,-0.063 0.882,-0.126 1.332,-0.171 l 21.087,-2.079 c 0.893,-0.085 1.754,-0.13 2.57,-0.13 0.137,0 0.274,0.001 0.409,0.004 0.936,0.009 1.8,0.081 2.529,0.189 0.738,0.126 1.377,0.288 1.809,0.495 0.45,0.207 0.72,0.468 0.774,0.765 0.009,0.135 -0.018,0.27 -0.099,0.414 -0.063,0.144 -0.198,0.279 -0.378,0.414 -0.153,0.144 -0.369,0.279 -0.612,0.414 -0.243,0.126 -0.531,0.27 -0.846,0.387 -0.36,0.144 -0.747,0.27 -1.188,0.396 -0.423,0.117 -0.891,0.225 -1.377,0.333 -0.495,0.099 -1.026,0.189 -1.557,0.252 -0.531,0.09 -1.089,0.144 -1.656,0.189 L 1.722,-0.072 C 1.116,-0.024 0.542,0 0,0"
                     id="path6394"
                     style="fill:#81d0f5;fill-opacity:1;fill-rule:nonzero;stroke:none" />
                </g>
              </g>
              <g
                 transform="matrix(0.2988129,0,0,-0.3156738,754.63019,461.98889)"
                 id="g6396">
                <g
                   transform="translate(93.853,-261.9963)"
                   id="g6398">
                  <path
                     d="m 0,0 -0.189,-0.018 -0.189,-0.045 c -0.315,-0.162 -0.495,-0.513 -0.567,-1.035 -0.072,-0.504 -0.009,-1.161 0.171,-1.944 0.171,-0.774 0.441,-1.647 0.819,-2.574 0.369,-0.918 0.837,-1.899 1.386,-2.898 L 12.312,-28.08 c 0.36,-0.657 0.756,-1.26 1.143,-1.827 0.396,-0.558 0.801,-1.062 1.206,-1.503 0.405,-0.441 0.801,-0.81 1.179,-1.098 0.36,-0.297 0.711,-0.513 1.026,-0.63 l 0.207,-0.054 0.171,-0.045 0.171,-0.018 0.171,0.018 c 0.306,0.054 0.522,0.261 0.639,0.576 0.117,0.342 0.153,0.792 0.081,1.332 -0.063,0.54 -0.216,1.197 -0.468,1.908 -0.243,0.72 -0.585,1.503 -0.999,2.313 L 6.12,-6.732 C 5.67,-5.886 5.175,-5.076 4.689,-4.338 4.194,-3.582 3.672,-2.907 3.177,-2.322 2.664,-1.728 2.178,-1.224 1.71,-0.846 1.242,-0.468 0.81,-0.198 0.45,-0.081 L 0.216,-0.027 0,0"
                     id="path6400"
                     style="fill:#81d0f5;fill-opacity:1;fill-rule:nonzero;stroke:none" />
                </g>
              </g>
              <g
                 transform="matrix(0.2988129,0,0,-0.3156738,754.63019,461.98889)"
                 id="g6402">
                <g
                   transform="translate(201.32,-301.3617)"
                   id="g6404">
                  <path
                     d="m 0,0 c -0.032,0 -0.065,0 -0.097,-0.001 -0.729,0 -1.512,-0.099 -2.358,-0.27 -0.846,-0.162 -1.719,-0.432 -2.601,-0.747 -0.873,-0.324 -1.764,-0.72 -2.637,-1.188 l -20.025,-10.629 c -0.765,-0.414 -1.431,-0.873 -1.971,-1.314 -0.522,-0.468 -0.936,-0.945 -1.206,-1.395 -0.288,-0.45 -0.423,-0.882 -0.423,-1.278 0,-0.405 0.135,-0.774 0.423,-1.071 l 0.18,-0.162 0.207,-0.153 0.225,-0.117 c 0.072,-0.036 0.153,-0.072 0.252,-0.099 0.369,-0.153 0.828,-0.234 1.332,-0.27 0.148,-0.01 0.3,-0.015 0.457,-0.015 0.368,0 0.759,0.028 1.163,0.078 0.585,0.081 1.206,0.207 1.836,0.396 0.639,0.189 1.278,0.432 1.917,0.738 l 20.385,9.666 c 1.089,0.504 2.052,1.08 2.889,1.692 0.855,0.594 1.575,1.242 2.097,1.872 0.558,0.63 0.909,1.251 1.062,1.827 0.135,0.567 0.063,1.08 -0.261,1.494 L 2.639,-0.721 C 2.558,-0.658 2.477,-0.604 2.378,-0.55 2.306,-0.478 2.198,-0.433 2.081,-0.388 2,-0.334 1.883,-0.289 1.757,-0.244 1.276,-0.089 0.672,0 0,0"
                     id="path6406"
                     style="fill:#81d0f5;fill-opacity:1;fill-rule:nonzero;stroke:none" />
                </g>
              </g>
              <g
                 transform="matrix(0.2988129,0,0,-0.3156738,754.63019,461.98889)"
                 id="g6408">
                <g
                   transform="translate(147.331,-263.3273)"
                   id="g6410">
                  <path
                     d="m 0,0 c -0.387,0 -0.78,-0.122 -1.161,-0.334 -0.576,-0.324 -1.125,-0.855 -1.62,-1.566 -0.495,-0.702 -0.927,-1.566 -1.296,-2.547 -0.36,-0.972 -0.657,-2.07 -0.828,-3.249 l -3.438,-21.798 c -0.135,-0.828 -0.162,-1.647 -0.126,-2.412 0.063,-0.738 0.198,-1.44 0.405,-2.061 0.198,-0.612 0.468,-1.143 0.801,-1.566 0.324,-0.423 0.711,-0.729 1.134,-0.891 0.233,-0.083 0.467,-0.123 0.697,-0.123 0.197,0 0.391,0.029 0.581,0.087 0.45,0.135 0.864,0.423 1.242,0.81 0.387,0.405 0.756,0.918 1.071,1.548 0.306,0.612 0.567,1.35 0.738,2.16 l 4.653,21.609 c 0.252,1.179 0.378,2.34 0.396,3.447 C 3.276,-5.77 3.159,-4.708 2.97,-3.772 2.763,-2.809 2.457,-1.99 2.052,-1.351 1.647,-0.712 1.134,-0.28 0.558,-0.091 0.375,-0.029 0.188,0 0,0"
                     id="path6412"
                     style="fill:#81d0f5;fill-opacity:1;fill-rule:nonzero;stroke:none" />
                </g>
              </g>
            </g>
          </g>
        </g>
      </g>
    </g>
  </g>
</svg>
